<svg width="22" height="22" viewBox="0 0 22 22" fill="none" xmlns="http://www.w3.org/2000/svg">
<path d="M21.1562 18.8125H0.84375C0.63655 18.8125 0.437836 18.8948 0.291323 19.0413C0.14481 19.1878 0.0625 19.3865 0.0625 19.5938L0.0625 21.1562C0.0625 21.3635 0.14481 21.5622 0.291323 21.7087C0.437836 21.8552 0.63655 21.9375 0.84375 21.9375H21.1562C21.3635 21.9375 21.5622 21.8552 21.7087 21.7087C21.8552 21.5622 21.9375 21.3635 21.9375 21.1562V19.5938C21.9375 19.3865 21.8552 19.1878 21.7087 19.0413C21.5622 18.8948 21.3635 18.8125 21.1562 18.8125ZM21.1562 12.5625H0.84375C0.63655 12.5625 0.437836 12.6448 0.291323 12.7913C0.14481 12.9378 0.0625 13.1365 0.0625 13.3438L0.0625 14.9062C0.0625 15.1135 0.14481 15.3122 0.291323 15.4587C0.437836 15.6052 0.63655 15.6875 0.84375 15.6875H21.1562C21.3635 15.6875 21.5622 15.6052 21.7087 15.4587C21.8552 15.3122 21.9375 15.1135 21.9375 14.9062V13.3438C21.9375 13.1365 21.8552 12.9378 21.7087 12.7913C21.5622 12.6448 21.3635 12.5625 21.1562 12.5625ZM21.1562 6.3125H0.84375C0.63655 6.3125 0.437836 6.39481 0.291323 6.54132C0.14481 6.68784 0.0625 6.88655 0.0625 7.09375L0.0625 8.65625C0.0625 8.86345 0.14481 9.06216 0.291323 9.20868C0.437836 9.35519 0.63655 9.4375 0.84375 9.4375H21.1562C21.3635 9.4375 21.5622 9.35519 21.7087 9.20868C21.8552 9.06216 21.9375 8.86345 21.9375 8.65625V7.09375C21.9375 6.88655 21.8552 6.68784 21.7087 6.54132C21.5622 6.39481 21.3635 6.3125 21.1562 6.3125ZM21.1562 0.0625H0.84375C0.63655 0.0625 0.437836 0.14481 0.291323 0.291323C0.14481 0.437836 0.0625 0.63655 0.0625 0.84375L0.0625 2.40625C0.0625 2.61345 0.14481 2.81216 0.291323 2.95868C0.437836 3.10519 0.63655 3.1875 0.84375 3.1875H21.1562C21.3635 3.1875 21.5622 3.10519 21.7087 2.95868C21.8552 2.81216 21.9375 2.61345 21.9375 2.40625V0.84375C21.9375 0.63655 21.8552 0.437836 21.7087 0.291323C21.5622 0.14481 21.3635 0.0625 21.1562 0.0625Z" fill="#6A7685"/>
</svg>
