<svg width="23" height="23" viewBox="0 0 23 23" fill="none" xmlns="http://www.w3.org/2000/svg">
<path d="M19.7983 0.00390625H2.61084C1.98924 0.00390625 1.3931 0.253081 0.953558 0.696615C0.51402 1.14015 0.26709 1.74171 0.26709 2.36896L0.26709 19.7127C0.26709 20.34 0.51402 20.9415 0.953558 21.3851C1.3931 21.8286 1.98924 22.0778 2.61084 22.0778H9.3125V14.5731H6.23633V11.0408H9.3125V8.34862C9.3125 5.28636 11.1191 3.59485 13.8862 3.59485C15.2114 3.59485 16.5972 3.83333 16.5972 3.83333V6.83892H15.0703C13.5659 6.83892 13.0967 7.781 13.0967 8.74723V11.0408H16.4551L15.918 14.5731H13.0967V22.0778H19.7983C20.4199 22.0778 21.0161 21.8286 21.4556 21.3851C21.8952 20.9415 22.1421 20.34 22.1421 19.7127V2.36896C22.1421 1.74171 21.8952 1.14015 21.4556 0.696615C21.0161 0.253081 20.4199 0.00390625 19.7983 0.00390625Z" fill="white"/>
</svg>
