<svg width="23" height="23" viewBox="0 0 23 23" fill="none" xmlns="http://www.w3.org/2000/svg">
<path d="M11.0881 5.37927C7.98267 5.37927 5.47778 7.90693 5.47778 11.0406C5.47778 14.1743 7.98267 16.702 11.0881 16.702C14.1936 16.702 16.6985 14.1743 16.6985 11.0406C16.6985 7.90693 14.1936 5.37927 11.0881 5.37927ZM11.0881 14.7212C9.0813 14.7212 7.44067 13.0706 7.44067 11.0406C7.44067 9.01062 9.07642 7.36001 11.0881 7.36001C13.0999 7.36001 14.7356 9.01062 14.7356 11.0406C14.7356 13.0706 13.095 14.7212 11.0881 14.7212ZM18.2366 5.14769C18.2366 5.88185 17.6506 6.46818 16.928 6.46818C16.2004 6.46818 15.6194 5.87692 15.6194 5.14769C15.6194 4.41847 16.2053 3.8272 16.928 3.8272C17.6506 3.8272 18.2366 4.41847 18.2366 5.14769ZM21.9524 6.48789C21.8694 4.71903 21.469 3.15218 20.1848 1.86125C18.9055 0.570323 17.3528 0.166293 15.5999 0.0776034C13.7932 -0.0258678 8.37817 -0.0258678 6.57153 0.0776034C4.82349 0.161366 3.27075 0.565396 1.98657 1.85632C0.702393 3.14725 0.306885 4.7141 0.218994 6.48297C0.116455 8.30603 0.116455 13.7703 0.218994 15.5934C0.302002 17.3622 0.702393 18.9291 1.98657 20.22C3.27075 21.5109 4.8186 21.915 6.57153 22.0036C8.37817 22.1071 13.7932 22.1071 15.5999 22.0036C17.3528 21.9199 18.9055 21.5159 20.1848 20.22C21.4641 18.9291 21.8645 17.3622 21.9524 15.5934C22.0549 13.7703 22.0549 8.31096 21.9524 6.48789ZM19.6184 17.5495C19.2375 18.5152 18.5002 19.2592 17.5383 19.6484C16.0979 20.2249 12.6799 20.0919 11.0881 20.0919C9.49634 20.0919 6.07349 20.22 4.63794 19.6484C3.68091 19.2641 2.9436 18.5201 2.55786 17.5495C1.98657 16.0959 2.11841 12.6469 2.11841 11.0406C2.11841 9.43436 1.99146 5.98039 2.55786 4.53179C2.93872 3.56606 3.67603 2.82205 4.63794 2.43281C6.07837 1.85632 9.49634 1.98936 11.0881 1.98936C12.6799 1.98936 16.1028 1.86125 17.5383 2.43281C18.4954 2.81713 19.2327 3.56113 19.6184 4.53179C20.1897 5.98532 20.0579 9.43436 20.0579 11.0406C20.0579 12.6469 20.1897 16.1009 19.6184 17.5495Z" fill="white"/>
</svg>
