<svg width="230" height="101" viewBox="0 0 230 101" fill="none" xmlns="http://www.w3.org/2000/svg">
<path d="M13.54 67.2501L23.73 63.0201L25.81 64.5201L29.69 65.1201L35.16 64.2901L39.97 62.3101L41.75 60.0701L42.31 59.4801L46.9 58.9501L52.72 57.4601L57.03 54.8701L60.15 50.6401L60.5 47.0201L59.47 43.8401L57.12 42.2001L53.29 41.6301H52.57L51.97 39.9601L54.88 39.4501L56.15 37.2001L55.03 34.6601L51.17 32.5001L46.35 31.3501H43.19L40.91 32.1801L39.97 33.7401L39.53 35.9901L37.46 36.2201L33.35 37.7001L31.75 35.5801L28.64 34.3901L25.53 34.1401L21.64 34.8101L18.59 37.0301L16.32 40.9801L15.31 44.7601L16.62 47.6801L18.88 48.4001L20.41 48.2701L19.88 49.9201L20.19 51.7001L21.31 53.0201L18.8 54.7601L16.81 57.2101L15.68 60.2701L16.04 63.7001L16.11 64.5401L13.54 67.2501Z" fill="#231F20"/>
<path d="M60.7592 48.1802C60.5592 48.1802 60.3792 48.0602 60.2992 47.8702C60.1892 47.6202 60.3192 47.3202 60.5692 47.2202L74.6592 41.3802C74.9092 41.2702 75.2092 41.4002 75.3092 41.6502C75.4092 41.9002 75.2892 42.2002 75.0392 42.3002L60.9492 48.1402C60.8892 48.1702 60.8192 48.1802 60.7592 48.1802Z" fill="white"/>
<path d="M8.48963 69.8404C8.28963 69.8404 8.10963 69.7204 8.02963 69.5304C7.91963 69.2804 8.04963 68.9804 8.29963 68.8804L23.5396 62.5604C23.7896 62.4504 24.0896 62.5804 24.1896 62.8304C24.2996 63.0804 24.1696 63.3804 23.9196 63.4804L8.67963 69.8004C8.61963 69.8304 8.54963 69.8404 8.48963 69.8404Z" fill="white"/>
<path d="M30.4501 40.3703C30.3301 40.3703 30.2101 40.3303 30.1101 40.2403C29.9101 40.0503 29.8901 39.7403 30.0801 39.5303C30.1401 39.4603 36.5701 32.5903 46.4701 36.9403C46.7201 37.0503 46.8401 37.3503 46.7301 37.6003C46.6201 37.8503 46.3201 37.9703 46.0701 37.8603C36.8101 33.8003 30.8701 40.1503 30.8201 40.2103C30.7201 40.3203 30.5901 40.3703 30.4501 40.3703Z" fill="white"/>
<path d="M52.8198 40.4602C51.0098 40.4602 49.2498 39.7302 49.1498 39.6902C48.8998 39.5802 48.7798 39.2902 48.8798 39.0402C48.9898 38.7902 49.2798 38.6702 49.5298 38.7702C49.5598 38.7802 52.5498 40.0202 54.3598 39.1702C54.9398 38.9002 55.3298 38.4402 55.5398 37.7802C55.7698 37.0402 55.6798 36.3602 55.2498 35.7002C54.0698 33.8702 50.2898 32.3302 45.6198 31.7602C40.4698 31.1402 39.8198 35.4902 39.7998 35.6802C39.7598 35.9502 39.5098 36.1502 39.2398 36.1102C38.9698 36.0702 38.7698 35.8202 38.8098 35.5502C38.8098 35.5002 39.5898 30.0202 45.7498 30.7702C49.6898 31.2502 54.4798 32.6502 56.0998 35.1602C56.6898 36.0802 56.8298 37.0602 56.4998 38.0802C56.2098 39.0202 55.6298 39.6902 54.7898 40.0802C54.1898 40.3602 53.4998 40.4602 52.8298 40.4602H52.8198Z" fill="white"/>
<path d="M19.0194 48.9401C18.2694 48.9401 17.5494 48.7901 16.8794 48.4701C15.3894 47.7601 14.8094 45.4001 15.3994 42.4601C16.2294 38.2801 19.3294 33.9401 24.3894 33.6701C33.0894 33.1901 33.8194 37.4401 33.8494 37.6201C33.8894 37.8901 33.6994 38.1501 33.4294 38.1901C33.1494 38.2201 32.9094 38.0401 32.8594 37.7701C32.8494 37.7101 32.1294 34.2701 24.4394 34.6701C19.9194 34.9101 17.1294 38.8501 16.3794 42.6501C15.9094 45.0201 16.2994 47.0801 17.3094 47.5601C20.2894 48.9801 24.6694 46.0901 27.0194 42.5901C27.1694 42.3601 27.4794 42.3001 27.7094 42.4501C27.9394 42.6001 27.9994 42.9101 27.8494 43.1401C25.7194 46.3101 22.1594 48.9201 19.0194 48.9201V48.9401Z" fill="white"/>
<path d="M42.4092 59.9803C42.1292 59.9803 41.9092 59.7603 41.9092 59.4803C41.9092 59.2003 42.1292 58.9803 42.4092 58.9803C42.5592 58.9803 57.4092 58.8703 59.6592 49.6903C60.2892 47.1203 60.0292 45.1703 58.8792 43.9103C56.7392 41.5603 52.1592 42.2203 52.1092 42.2203C51.8392 42.2603 51.5792 42.0703 51.5392 41.8003C51.4992 41.5303 51.6892 41.2703 51.9592 41.2303C52.1692 41.2003 57.1092 40.4903 59.6092 43.2303C60.9992 44.7503 61.3392 47.0103 60.6292 49.9303C58.1892 59.8703 43.0492 59.9803 42.4092 59.9803Z" fill="white"/>
<path d="M13.5393 67.75C13.4293 67.75 13.3193 67.71 13.2193 67.64C13.0093 67.47 12.9693 67.15 13.1493 66.94C13.2093 66.87 14.4593 65.34 15.6693 64.27C15.2593 62.68 13.9793 55.82 21.4393 52.57C22.0593 52.33 36.3193 46.87 41.3393 55.67C41.3593 55.68 43.0893 57.76 42.3293 60.14C41.6493 62.23 39.2793 63.8 35.2793 64.79C30.4193 66 26.8993 65.92 24.8193 64.57C23.4793 63.7 23.2693 62.6 23.2593 62.55C23.2093 62.28 23.3893 62.02 23.6693 61.97C23.9393 61.92 24.1993 62.1 24.2493 62.38C24.2493 62.4 24.4193 63.14 25.4093 63.77C26.6893 64.57 29.3893 65.24 35.0393 63.83C38.6293 62.94 40.8193 61.56 41.3693 59.85C41.9693 58.01 40.5393 56.27 40.5193 56.25C35.8693 48.12 21.9593 53.45 21.8193 53.51C14.2593 56.8 16.5993 63.99 16.6993 64.29C16.7693 64.48 16.6993 64.7 16.5493 64.83C15.3493 65.84 13.9293 67.57 13.9193 67.58C13.8193 67.7 13.6793 67.76 13.5293 67.76L13.5393 67.75Z" fill="white"/>
<path d="M21.3501 53.42C17.9601 50.92 19.9801 48.01 20.0001 47.98L20.8101 48.56C20.6601 48.78 19.4001 50.74 21.9401 52.62L21.3501 53.42Z" fill="white"/>
<path d="M40.4397 45.1803C40.6993 45.1803 40.9097 44.8804 40.9097 44.5103C40.9097 44.1403 40.6993 43.8403 40.4397 43.8403C40.1802 43.8403 39.9697 44.1403 39.9697 44.5103C39.9697 44.8804 40.1802 45.1803 40.4397 45.1803Z" fill="white"/>
<path d="M43.9397 43.5402C44.1993 43.5402 44.4097 43.2402 44.4097 42.8702C44.4097 42.5002 44.1993 42.2002 43.9397 42.2002C43.6802 42.2002 43.4697 42.5002 43.4697 42.8702C43.4697 43.2402 43.6802 43.5402 43.9397 43.5402Z" fill="white"/>
<path d="M53.5998 45.55C53.5998 47.07 52.3998 47.64 49.9698 47.95C47.5398 48.26 46.3398 47.27 46.3398 46.04C46.3398 44.81 48.0598 43.25 49.9698 43.25C51.8798 43.25 53.5998 43.96 53.5998 45.56V45.55Z" fill="white"/>
<path d="M42.5396 51.8401C41.9296 51.8401 41.3796 51.7202 40.8796 51.5002C39.4996 50.8702 39.0696 49.5901 39.0596 49.5401C38.9796 49.2801 39.1196 49.0002 39.3796 48.9102C39.6396 48.8302 39.9196 48.9701 40.0096 49.2301C40.0096 49.2301 40.3296 50.1602 41.3096 50.6002C42.2196 51.0102 43.4296 50.9101 44.8896 50.2901C45.1396 50.1801 45.4396 50.3001 45.5396 50.5601C45.6496 50.8101 45.5296 51.1102 45.2696 51.2202C44.2696 51.6402 43.3496 51.8502 42.5296 51.8502L42.5396 51.8401Z" fill="white"/>
<path d="M78.1197 48.9702C76.4897 49.7602 74.4296 50.1602 71.9596 50.1602C70.6796 50.1602 69.5197 50.0302 68.4797 49.7802C67.4397 49.5302 66.6197 49.2702 66.0097 49.0102C65.7797 48.8902 65.5196 48.7502 65.2396 48.5702C64.9596 48.3902 64.6896 48.1902 64.4296 47.9402C64.1696 47.6902 63.9496 47.4102 63.7496 47.1002C63.5496 46.7802 63.4196 46.4302 63.3496 46.0302C63.2596 45.4502 63.1896 44.8102 63.1396 44.1202C63.0896 43.4302 63.0796 42.7302 63.1096 42.0002C63.1296 41.2802 63.1696 40.5602 63.2296 39.8702C63.2896 39.1702 63.3496 38.5302 63.4196 37.9402C63.4896 37.5702 63.6296 37.2402 63.8396 36.9602C64.0496 36.6802 64.2896 36.4402 64.5596 36.2402C64.8296 36.0402 65.1096 35.9002 65.4196 35.8002C65.7196 35.7102 65.9997 35.6602 66.2597 35.6602H77.8396C78.0996 35.6602 78.3796 35.7102 78.6796 35.8002C78.9796 35.8902 79.2696 36.0302 79.5396 36.2202C79.8097 36.4102 80.0396 36.6402 80.2396 36.9202C80.4396 37.2002 80.5696 37.5302 80.6396 37.9002C80.7596 38.5302 80.8397 39.2202 80.8997 39.9802C80.9597 40.7402 80.9896 41.5002 80.9996 42.2702C81.0096 43.0402 80.9797 43.7902 80.9097 44.5302C80.8397 45.2702 80.7296 45.9102 80.5996 46.4702C80.5296 46.7702 80.3996 47.0502 80.1996 47.3102C79.9996 47.5702 79.7897 47.8002 79.5497 48.0102C79.3197 48.2202 79.0696 48.4002 78.8196 48.5502C78.5596 48.7002 78.3297 48.8402 78.1197 48.9502V48.9702ZM70.9797 61.4702C71.0697 61.7302 71.2796 61.9002 71.6096 62.0002C71.9796 62.0702 72.4296 62.1402 72.9596 62.2102C73.4896 62.2802 74.0596 62.3302 74.6796 62.3702C75.2996 62.4102 75.9396 62.4302 76.5996 62.4602C77.2696 62.4802 77.9096 62.4902 78.5396 62.4902C79.2596 62.4902 80.0096 62.4702 80.7796 62.4202C81.5496 62.3702 82.3196 62.3002 83.0896 62.2102C83.8596 62.1202 84.5996 62.0102 85.3096 61.8902C86.0196 61.7702 86.6796 61.6402 87.2896 61.5102C88.0797 61.3202 88.7396 61.3502 89.2496 61.6002C89.7596 61.8402 90.0996 62.2702 90.2696 62.8802C90.4296 63.4402 90.3596 63.9602 90.0596 64.4402C89.7596 64.9202 89.2996 65.2602 88.6996 65.4702C87.9996 65.7302 87.1796 65.9302 86.2496 66.0802C85.3196 66.2302 84.3397 66.3502 83.3297 66.4502C82.3097 66.5402 81.3096 66.6102 80.3196 66.6402C79.3296 66.6802 78.4196 66.6902 77.6096 66.6902C76.7996 66.6902 75.9796 66.6802 75.0896 66.6502C74.1996 66.6302 73.3297 66.5702 72.4797 66.4902C71.6297 66.4102 70.8296 66.3002 70.0796 66.1802C69.3296 66.0502 68.6896 65.8802 68.1496 65.6702C67.6396 65.4602 67.0996 65.0802 66.5396 64.5302C65.9796 63.9802 65.6196 63.3202 65.4596 62.5502C65.2696 61.7302 65.2096 60.9802 65.2896 60.2902C65.3596 59.6002 65.4296 59.0702 65.4996 58.7002C65.6196 58.0002 65.8797 57.4802 66.2997 57.1402C66.7197 56.8002 67.1196 56.6302 67.4896 56.6302H84.0396V55.9002C84.0196 55.6402 83.7696 55.5102 83.3096 55.5102H67.5596C67.2096 55.5102 66.8296 55.3402 66.4196 55.0002C66.0096 54.6602 65.8096 54.1202 65.8096 53.3702C65.8096 52.7602 65.9896 52.2702 66.3496 51.8802C66.7096 51.5002 67.0896 51.3002 67.4896 51.3002H86.9797C87.2397 51.3002 87.4996 51.3702 87.7896 51.4902C88.0697 51.6202 88.3396 51.8102 88.5996 52.0702C88.8596 52.3302 89.0796 52.6502 89.2796 53.0302C89.4796 53.4102 89.6096 53.8802 89.6796 54.4102C89.7997 55.2302 89.8296 56.0002 89.7796 56.7202C89.7296 57.4402 89.6496 58.1102 89.5296 58.7202C89.3396 59.5402 89.0097 60.0902 88.5097 60.3802C88.0197 60.6702 87.5097 60.8202 86.9697 60.8202H70.9797V61.4502V61.4702ZM75.2096 41.5202C75.1896 41.4002 75.1396 41.2602 75.0696 41.1002C74.9996 40.9402 74.7897 40.8502 74.4397 40.8502H69.6496C69.2996 40.8502 69.0896 40.9402 69.0196 41.1102C68.9496 41.2802 68.8996 41.4302 68.8796 41.5502C68.8596 41.7802 68.8397 42.1302 68.8296 42.6002C68.8196 43.0702 68.8496 43.5002 68.9196 43.8902C68.9896 44.3102 69.2397 44.5902 69.6597 44.7302C69.9897 44.8202 70.3396 44.8802 70.7096 44.9102C71.0796 44.9302 71.5496 44.9402 72.1096 44.9402C72.7196 44.9402 73.2096 44.9202 73.5996 44.8702C73.9796 44.8202 74.3196 44.7602 74.5996 44.6902C74.9296 44.5702 75.1197 44.2702 75.1897 43.7802C75.2097 43.6402 75.2296 43.4602 75.2396 43.2402C75.2496 43.0202 75.2597 42.8002 75.2597 42.5702V41.9402C75.2597 41.7402 75.2497 41.6002 75.2297 41.5002L75.2096 41.5202ZM89.3796 37.6702C89.4996 38.6302 89.5696 39.4802 89.5896 40.2202H91.4397C92.0697 40.2202 92.6097 40.4802 93.0497 40.9902C93.4897 41.5002 93.7197 42.1002 93.7197 42.7802C93.7197 43.0802 93.6796 43.3902 93.5996 43.6902C93.5196 43.9902 93.3896 44.2702 93.2096 44.5302C93.0396 44.7902 92.8097 45.0002 92.5396 45.1602C92.2696 45.3202 91.9597 45.4102 91.6096 45.4102H89.5797C89.5097 46.2002 89.4397 47.0802 89.3697 48.0402C89.3497 48.4102 89.2396 48.7602 89.0596 49.0902C88.8696 49.4202 88.6397 49.6902 88.3596 49.9102C88.0796 50.1302 87.7496 50.3002 87.3796 50.4202C87.0096 50.5402 86.6097 50.5702 86.1897 50.5202C85.2997 50.4002 84.6196 50.0602 84.1396 49.4902C83.6596 48.9202 83.4596 48.2802 83.5296 47.5802C83.6196 46.8102 83.6896 46.0002 83.7197 45.1502C83.7597 44.3002 83.7697 43.4602 83.7597 42.6302C83.7497 41.8002 83.7197 41.0002 83.6897 40.2302C83.6597 39.4602 83.5996 38.7702 83.5296 38.1602C83.4596 37.4802 83.6497 36.8602 84.1096 36.2902C84.5696 35.7202 85.2196 35.3702 86.0896 35.2602C86.9596 35.1502 87.6897 35.3302 88.2997 35.8202C88.9097 36.3102 89.2696 36.9302 89.3796 37.6802V37.6702Z" fill="#231F20" stroke="white" stroke-miterlimit="10"/>
<path d="M96.3496 48.5204C96.1896 47.7704 96.1196 46.9404 96.1396 46.0204C96.1596 45.1004 96.2696 44.2704 96.4496 43.5204C96.5896 42.9604 96.8496 42.4904 97.2396 42.1004C97.6296 41.7204 97.9896 41.5204 98.3396 41.5204H108.14C108.16 41.4304 108.18 41.2904 108.18 41.1204V40.6804C108.18 40.4504 108.04 40.3304 107.76 40.3304H98.7596C98.1496 40.3304 97.6596 40.0904 97.2896 39.6104C96.9196 39.1304 96.7296 38.5904 96.7296 37.9804C96.7296 37.3704 96.9196 36.8404 97.2896 36.3704C97.6596 35.9004 98.1496 35.6704 98.7596 35.6704H110.87C111.62 35.6704 112.23 35.9204 112.72 36.4004C113.21 36.8904 113.5 37.4704 113.6 38.1504C113.65 38.5904 113.68 39.0904 113.7 39.6404C113.72 40.1904 113.73 40.7404 113.73 41.2804C113.73 41.8204 113.71 42.3404 113.66 42.8204C113.61 43.3004 113.54 43.7004 113.45 44.0304C113.26 44.6804 112.93 45.2004 112.43 45.5904C111.94 45.9804 111.43 46.1704 110.89 46.1704H101.76V46.9704C101.76 47.2504 101.91 47.4504 102.22 47.5704C102.69 47.6904 103.26 47.7704 103.93 47.8104C104.61 47.8604 105.32 47.8804 106.06 47.8804C106.6 47.8804 107.15 47.8604 107.72 47.8104C108.29 47.7604 108.84 47.7004 109.37 47.6204C109.89 47.5404 110.36 47.4504 110.77 47.3604C111.18 47.2704 111.46 47.1704 111.63 47.0804C111.91 46.9604 112.21 46.9004 112.54 46.8904C112.87 46.8804 113.18 46.9304 113.49 47.0504C113.79 47.1704 114.07 47.3504 114.33 47.5904C114.59 47.8304 114.76 48.1604 114.85 48.5504C114.94 48.9204 114.94 49.2604 114.85 49.5604C114.76 49.8604 114.62 50.1404 114.43 50.3804C114.24 50.6304 114.03 50.8304 113.8 50.9904C113.57 51.1504 113.36 51.2704 113.17 51.3404C112.73 51.5504 112.21 51.7404 111.63 51.9004C111.05 52.0604 110.43 52.2004 109.78 52.3004C109.13 52.4004 108.47 52.4904 107.8 52.5504C107.13 52.6104 106.51 52.6404 105.93 52.6404C105.28 52.6404 104.62 52.6104 103.95 52.5504C103.28 52.4904 102.65 52.4104 102.04 52.3004C101.43 52.1904 100.87 52.0704 100.34 51.9304C99.8096 51.7904 99.3696 51.6404 98.9896 51.4704C98.7596 51.3504 98.5096 51.2104 98.2396 51.0304C97.9696 50.8504 97.7096 50.6404 97.4496 50.4004C97.1896 50.1504 96.9596 49.8704 96.7496 49.5604C96.5396 49.2504 96.3996 48.8904 96.3296 48.4904L96.3496 48.5204ZM123.06 60.2804C123.06 61.5404 122.7 62.6004 121.98 63.4604C121.26 64.3204 120.3 65.0204 119.11 65.5404C117.92 66.0704 116.56 66.4404 115.02 66.6804C113.48 66.9204 111.89 67.0304 110.26 67.0304C108.63 67.0304 107.04 66.9104 105.5 66.6804C103.96 66.4504 102.59 66.0704 101.4 65.5404C100.21 65.0204 99.2496 64.3204 98.5296 63.4604C97.8096 62.6004 97.4496 61.5404 97.4496 60.2804C97.4496 59.0204 97.8096 57.9604 98.5296 57.0904C99.2496 56.2204 100.21 55.5304 101.4 55.0104C102.59 54.4804 103.96 54.1104 105.5 53.8704C107.04 53.6304 108.63 53.5204 110.26 53.5204C111.89 53.5204 113.48 53.6404 115.02 53.8704C116.56 54.1004 117.92 54.4804 119.11 55.0104C120.3 55.5304 121.26 56.2304 121.98 57.0904C122.7 57.9504 123.06 59.0104 123.06 60.2804ZM117.18 60.2804C117.18 59.6004 116.62 59.1304 115.5 58.8604C114.38 58.5904 112.62 58.4604 110.22 58.4604C107.82 58.4604 106.07 58.5904 104.97 58.8604C103.87 59.1304 103.32 59.6004 103.32 60.2804C103.32 60.9604 103.87 61.4604 104.97 61.7104C106.07 61.9704 107.82 62.0904 110.22 62.0904C112.62 62.0904 114.39 61.9604 115.5 61.6904C116.62 61.4204 117.18 60.9504 117.18 60.2704V60.2804ZM122.29 37.6704C122.34 38.2504 122.38 38.8404 122.43 39.4404C122.48 40.0304 122.51 40.6504 122.53 41.2804H124.35C124.68 41.2804 124.97 41.3604 125.24 41.5104C125.51 41.6604 125.75 41.8704 125.96 42.1204C126.17 42.3804 126.33 42.6704 126.45 43.0004C126.57 43.3304 126.63 43.6704 126.63 44.0204C126.63 44.3204 126.59 44.6404 126.51 44.9604C126.43 45.2904 126.3 45.5904 126.13 45.8704C125.96 46.1504 125.73 46.3804 125.46 46.5504C125.19 46.7204 124.88 46.8104 124.53 46.8104H122.53C122.51 47.4904 122.47 48.1504 122.43 48.7904C122.38 49.4304 122.34 50.0604 122.29 50.6604C122.27 51.0304 122.16 51.3804 121.98 51.7104C121.79 52.0404 121.56 52.3104 121.28 52.5304C121 52.7504 120.67 52.9204 120.3 53.0404C119.93 53.1604 119.53 53.1904 119.11 53.1404C118.22 53.0204 117.55 52.6804 117.08 52.1104C116.61 51.5404 116.4 50.9004 116.45 50.2004C116.54 49.1504 116.61 48.1304 116.64 47.1604C116.68 46.1804 116.69 45.2004 116.69 44.2404C116.69 43.2804 116.67 42.2904 116.62 41.3004C116.57 40.3104 116.52 39.2604 116.45 38.1704C116.4 37.4904 116.6 36.8704 117.04 36.3004C117.48 35.7304 118.14 35.3804 119 35.2704C119.86 35.1604 120.6 35.3404 121.21 35.8304C121.82 36.3204 122.18 36.9404 122.29 37.6904V37.6704Z" fill="#231F20" stroke="white" stroke-miterlimit="10"/>
<path d="M130.05 56.2203C129.72 56.1703 129.4 56.0903 129.09 55.9603C128.78 55.8303 128.5 55.6603 128.25 55.4403C128 55.2203 127.82 54.9403 127.69 54.6003C127.56 54.2603 127.52 53.8703 127.57 53.4303C127.62 53.0103 127.74 52.6603 127.94 52.3803C128.14 52.1003 128.38 51.8803 128.66 51.7303C128.94 51.5803 129.25 51.4803 129.59 51.4303C129.93 51.3803 130.25 51.3703 130.55 51.3903C131.46 51.4803 132.55 51.5603 133.81 51.6203C135.07 51.6803 136.42 51.7303 137.87 51.7803C139.32 51.8303 140.8 51.8503 142.33 51.8503C143.86 51.8503 145.34 51.8403 146.79 51.8103C148.24 51.7903 149.59 51.7403 150.85 51.6703C152.11 51.6003 153.19 51.5103 154.1 51.3903C154.43 51.3403 154.77 51.3403 155.11 51.3703C155.46 51.4103 155.79 51.5003 156.09 51.6703C156.39 51.8303 156.66 52.0603 156.88 52.3503C157.1 52.6403 157.22 53.0303 157.25 53.5203C157.3 53.9603 157.25 54.3503 157.11 54.6803C156.97 55.0103 156.78 55.2703 156.53 55.4803C156.28 55.6903 156 55.8503 155.69 55.9703C155.37 56.0903 155.07 56.1703 154.76 56.2203C153.94 56.3403 152.76 56.4303 151.21 56.4803C149.66 56.5403 147.94 56.5903 146.05 56.6403V58.5003C146.05 58.8703 145.96 59.1903 145.77 59.4403C145.58 59.7003 145.34 59.9103 145.05 60.0703C144.76 60.2303 144.44 60.3603 144.09 60.4403C143.74 60.5203 143.4 60.5603 143.07 60.5603C142.74 60.5603 142.41 60.5203 142.07 60.4403C141.73 60.3603 141.42 60.2303 141.14 60.0603C140.86 59.8803 140.63 59.6703 140.44 59.4103C140.25 59.1503 140.16 58.8503 140.16 58.5003V56.6803C139.11 56.6803 138.08 56.6703 137.08 56.6403C136.08 56.6203 135.14 56.5903 134.26 56.5503C133.38 56.5103 132.59 56.4703 131.86 56.4103C131.14 56.3503 130.53 56.2903 130.04 56.2203H130.05ZM152.31 41.5503C153.2 42.3003 153.64 43.3203 153.64 44.6303C153.64 45.8403 153.27 46.8403 152.54 47.6203C151.8 48.4003 150.88 49.0103 149.78 49.4603C148.67 49.9003 147.46 50.2103 146.14 50.3703C144.82 50.5303 143.58 50.6203 142.41 50.6203C141.24 50.6203 140.04 50.5503 138.74 50.4103C137.43 50.2703 136.22 49.9803 135.1 49.5503C133.98 49.1203 133.05 48.5103 132.3 47.7303C131.55 46.9503 131.18 45.9303 131.18 44.6703C131.18 44.0203 131.31 43.4003 131.56 42.8303C131.82 42.2603 132.15 41.8303 132.57 41.5503H131.98C131.68 41.5503 131.4 41.4703 131.14 41.3003C130.88 41.1403 130.67 40.9303 130.49 40.6903C130.31 40.4503 130.18 40.1703 130.09 39.8703C130 39.5703 129.95 39.2603 129.95 38.9603C129.95 38.6803 130 38.3803 130.09 38.0703C130.18 37.7503 130.32 37.4803 130.49 37.2303C130.66 36.9803 130.88 36.7803 131.14 36.6203C131.4 36.4603 131.68 36.3803 131.98 36.3803H139.47V35.5703C139.47 35.0303 139.76 34.5603 140.33 34.1403C140.9 33.7203 141.55 33.5103 142.27 33.5103C142.62 33.5103 142.98 33.5603 143.34 33.6703C143.7 33.7703 144.03 33.9203 144.32 34.0903C144.61 34.2603 144.86 34.4803 145.05 34.7403C145.24 35.0003 145.35 35.2803 145.35 35.5803V36.3903H152.73C153.34 36.3903 153.85 36.6503 154.27 37.1603C154.69 37.6703 154.9 38.2703 154.9 38.9503C154.9 39.2503 154.85 39.5603 154.76 39.8603C154.67 40.1603 154.53 40.4403 154.34 40.7003C154.15 40.9603 153.92 41.1703 153.66 41.3303C153.39 41.4903 153.08 41.5803 152.73 41.5803H152.31V41.5503ZM136.14 60.4203C136.09 60.5803 136.14 60.7303 136.26 60.8803C136.39 61.0203 136.6 61.1103 136.91 61.1603C137.31 61.2303 137.76 61.2903 138.26 61.3303C138.76 61.3703 139.29 61.4203 139.84 61.4503C140.39 61.4903 140.94 61.5103 141.48 61.5403C142.03 61.5603 142.52 61.5803 142.97 61.5803C144.53 61.5803 146.07 61.4903 147.59 61.3203C149.11 61.1503 150.41 60.8603 151.51 60.4603C151.86 60.3203 152.22 60.2503 152.59 60.2503C152.96 60.2503 153.31 60.3103 153.64 60.4403C153.97 60.5703 154.26 60.7603 154.52 61.0203C154.78 61.2803 154.95 61.5903 155.04 61.9703C155.25 62.5803 155.23 63.1803 154.97 63.7903C154.71 64.4003 154.28 64.8403 153.68 65.1203C153 65.4503 152.22 65.7103 151.32 65.9103C150.42 66.1103 149.49 66.2703 148.52 66.3803C147.55 66.5003 146.59 66.5803 145.63 66.6303C144.67 66.6803 143.79 66.7003 142.97 66.7003C142.15 66.7003 141.28 66.6803 140.36 66.6303C139.44 66.5803 138.53 66.5203 137.65 66.4403C136.77 66.3603 135.94 66.2503 135.16 66.1103C134.39 65.9703 133.75 65.7903 133.24 65.5803C132.73 65.3903 132.19 65.0303 131.63 64.5003C131.07 63.9603 130.7 63.3103 130.51 62.5403C130.39 61.9803 130.35 61.4203 130.37 60.8403C130.39 60.2703 130.46 59.6303 130.58 58.9303C130.65 58.5803 130.79 58.2803 131 58.0203C131.21 57.7603 131.47 57.5603 131.79 57.4303C132.1 57.2903 132.45 57.2003 132.82 57.1703C133.19 57.1403 133.56 57.1503 133.9 57.2203C134.62 57.3403 135.2 57.6303 135.63 58.1103C136.06 58.5903 136.25 59.1803 136.21 59.8803L136.14 60.4403V60.4203ZM147.8 43.7603C147.8 43.5003 147.72 43.2303 147.55 42.9503C147.39 42.6703 147.1 42.4103 146.69 42.1803C146.28 41.9503 145.73 41.7503 145.04 41.6003C144.35 41.4503 143.48 41.3703 142.43 41.3703C141.29 41.3703 140.37 41.4503 139.67 41.6003C138.97 41.7503 138.42 41.9403 138.02 42.1603C137.62 42.3803 137.35 42.6303 137.22 42.9103C137.08 43.1903 137.01 43.4703 137.01 43.7503C137.01 44.0503 137.1 44.3403 137.29 44.6303C137.48 44.9103 137.78 45.1603 138.2 45.3803C138.62 45.6003 139.17 45.7803 139.86 45.9203C140.55 46.0603 141.39 46.1303 142.4 46.1303C143.54 46.1303 144.47 46.0503 145.18 45.9003C145.89 45.7503 146.44 45.5503 146.82 45.3103C147.2 45.0703 147.46 44.8003 147.59 44.5203C147.72 44.2403 147.78 43.9803 147.78 43.7503L147.8 43.7603Z" fill="#231F20" stroke="white" stroke-miterlimit="10"/>
<path d="M160.75 50.6902C160.68 50.3202 160.63 49.8302 160.59 49.2202C160.55 48.6102 160.54 47.9802 160.54 47.3302C160.54 46.6802 160.57 46.0502 160.63 45.4402C160.69 44.8302 160.76 44.3402 160.86 43.9702C160.98 43.5002 161.22 43.1202 161.58 42.8102C161.94 42.5102 162.33 42.3502 162.75 42.3502H171.54V41.1302C171.54 41.1302 171.53 41.0202 171.5 40.9402C171.47 40.8602 171.37 40.8202 171.18 40.8202H163.17C162.89 40.8202 162.63 40.7402 162.38 40.5702C162.13 40.4102 161.92 40.2002 161.73 39.9602C161.54 39.7102 161.4 39.4402 161.29 39.1402C161.18 38.8402 161.13 38.5302 161.13 38.2302C161.13 37.9302 161.18 37.6202 161.29 37.3202C161.39 37.0202 161.54 36.7402 161.71 36.5002C161.88 36.2602 162.09 36.0602 162.34 35.9102C162.59 35.7602 162.86 35.6802 163.16 35.6802H174.25C174.76 35.6802 175.29 35.8402 175.84 36.1702C176.39 36.5002 176.74 37.0202 176.91 37.7402C177 38.1802 177.06 38.7602 177.08 39.4502C177.1 40.1502 177.11 40.8602 177.1 41.5902C177.09 42.3202 177.05 42.9802 177 43.6002C176.94 44.2202 176.88 44.6902 176.81 45.0202C176.62 45.7902 176.28 46.4002 175.79 46.8402C175.3 47.2802 174.79 47.5102 174.25 47.5102H166.17V48.1402C166.17 48.4002 166.18 48.6402 166.21 48.8802C166.21 49.0402 166.3 49.1602 166.49 49.2302C166.96 49.3502 167.54 49.4402 168.24 49.4902C168.94 49.5502 169.69 49.5802 170.48 49.5802C171.53 49.5802 172.52 49.4902 173.44 49.3202C174.36 49.1402 175 48.9602 175.35 48.7802C175.68 48.6402 176.07 48.5702 176.52 48.5702C176.97 48.5702 177.42 48.6602 177.87 48.8502V48.7102C177.87 48.0302 178.09 47.4402 178.54 46.9202C178.98 46.4102 179.52 46.1502 180.15 46.1502H181.58C181.58 45.8202 181.58 45.4902 181.56 45.1502C181.55 44.8102 181.54 44.4702 181.54 44.1202H179.96C179.61 44.1202 179.31 44.0402 179.05 43.8702C178.79 43.7102 178.58 43.5002 178.4 43.2402C178.23 42.9802 178.09 42.7002 178 42.4002C177.91 42.1002 177.86 41.7902 177.86 41.4902C177.86 40.8102 178.08 40.2202 178.53 39.7002C178.97 39.1902 179.51 38.9302 180.14 38.9302H181.36C181.36 38.7902 181.36 38.6602 181.34 38.5302C181.32 38.4002 181.32 38.2802 181.32 38.1602C181.27 37.4802 181.47 36.8602 181.91 36.2902C182.35 35.7202 183.01 35.3702 183.87 35.2602C184.73 35.1502 185.47 35.3302 186.08 35.8202C186.69 36.3102 187.05 36.9302 187.16 37.6802C187.23 38.3602 187.29 39.1602 187.34 40.0802C187.39 41.0002 187.42 41.9902 187.44 43.0402C187.46 44.0902 187.48 45.1702 187.48 46.2902C187.48 47.4102 187.47 48.5002 187.44 49.5502C187.42 50.6002 187.38 51.5902 187.34 52.5102C187.29 53.4302 187.23 54.2202 187.16 54.8702C187.14 55.2402 187.03 55.5902 186.85 55.9202C186.66 56.2502 186.43 56.5202 186.15 56.7402C185.87 56.9602 185.54 57.1302 185.17 57.2502C184.8 57.3702 184.4 57.4002 183.98 57.3602C183.09 57.2402 182.42 56.9002 181.95 56.3302C181.48 55.7602 181.27 55.1202 181.32 54.4202C181.37 53.9502 181.4 53.4702 181.43 52.9702C181.45 52.4702 181.48 51.9302 181.5 51.3402H179.96C179.73 51.3402 179.5 51.3102 179.29 51.2402C179.24 51.8202 179.03 52.3202 178.64 52.7402C178.26 53.1602 177.9 53.4302 177.57 53.5402C177.13 53.7502 176.61 53.9402 176.03 54.1002C175.45 54.2602 174.83 54.4002 174.18 54.5002C173.53 54.6102 172.87 54.6902 172.2 54.7502C171.53 54.8102 170.91 54.8402 170.33 54.8402C169.68 54.8402 169.02 54.8102 168.35 54.7502C167.68 54.6902 167.05 54.6102 166.44 54.5002C165.83 54.3902 165.27 54.2702 164.74 54.1302C164.21 53.9902 163.77 53.8402 163.39 53.6702C163.16 53.5502 162.91 53.4102 162.64 53.2302C162.37 53.0502 162.11 52.8502 161.85 52.6002C161.59 52.3502 161.36 52.0702 161.15 51.7602C160.94 51.4502 160.8 51.0902 160.73 50.6902H160.75ZM186.23 65.3202C185.53 65.5802 184.75 65.7902 183.9 65.9702C183.05 66.1402 182.17 66.2802 181.26 66.3902C180.35 66.4902 179.44 66.5702 178.53 66.6202C177.62 66.6702 176.76 66.6902 175.94 66.6902C175.12 66.6902 174.27 66.6702 173.3 66.6202C172.33 66.5702 171.38 66.5102 170.45 66.4302C169.52 66.3502 168.64 66.2402 167.81 66.1002C166.98 65.9602 166.31 65.7802 165.8 65.5702C165.29 65.3602 164.75 65.0002 164.19 64.5002C163.63 64.0002 163.27 63.3602 163.11 62.5902C162.92 61.8002 162.83 61.0202 162.83 60.2602C162.83 59.5002 162.87 58.7402 162.93 57.9702C162.95 57.7402 163.02 57.4702 163.12 57.1802C163.23 56.8902 163.39 56.6202 163.61 56.3702C163.83 56.1202 164.13 55.9102 164.5 55.7402C164.87 55.5702 165.34 55.4902 165.9 55.5102C166.41 55.5302 166.86 55.6402 167.23 55.8402C167.6 56.0402 167.9 56.2802 168.12 56.5602C168.34 56.8402 168.51 57.1402 168.61 57.4502C168.72 57.7702 168.74 58.0602 168.7 58.3402L168.59 60.0202C168.59 60.4402 168.79 60.6902 169.19 60.7502C169.59 60.8402 170.07 60.9202 170.64 60.9802C171.21 61.0402 171.82 61.0902 172.46 61.1202C173.1 61.1502 173.74 61.1802 174.38 61.1902C175.02 61.2002 175.62 61.2102 176.18 61.2102C177.63 61.2102 179.1 61.1102 180.59 60.9002C182.08 60.6902 183.4 60.4402 184.55 60.1602C185.23 60.0002 185.9 60.0802 186.56 60.4202C187.22 60.7602 187.66 61.3402 187.87 62.1502C188.03 62.7602 187.96 63.3702 187.64 64.0002C187.33 64.6302 186.85 65.0602 186.22 65.2902L186.23 65.3202Z" fill="#231F20" stroke="white" stroke-miterlimit="10"/>
<path d="M193.4 63.5303C193.07 63.4803 192.75 63.3703 192.42 63.2003C192.09 63.0303 191.81 62.8003 191.56 62.5203C191.31 62.2403 191.13 61.9203 191 61.5603C190.87 61.2003 190.84 60.8103 190.91 60.3903C190.98 59.9703 191.12 59.6003 191.33 59.2903C191.54 58.9803 191.8 58.7103 192.1 58.5003C192.4 58.2903 192.73 58.1403 193.08 58.0403C193.43 57.9503 193.76 57.9203 194.06 57.9703C195.11 58.0903 196.4 58.1803 197.93 58.2303C199.46 58.2903 201.09 58.3403 202.81 58.3903V54.9603C202.81 54.3503 203.11 53.8303 203.7 53.4003C204.3 52.9703 204.95 52.7503 205.68 52.7503C206.03 52.7503 206.38 52.8003 206.73 52.9103C207.08 53.0203 207.4 53.1603 207.69 53.3503C207.98 53.5403 208.22 53.7703 208.41 54.0503C208.6 54.3303 208.69 54.6303 208.69 54.9603V58.3903C210.42 58.3703 212.04 58.3203 213.55 58.2503C215.07 58.1803 216.35 58.0903 217.4 57.9703C217.75 57.9203 218.11 57.9503 218.48 58.0403C218.85 58.1303 219.19 58.2903 219.49 58.5003C219.79 58.7103 220.04 58.9803 220.24 59.3203C220.44 59.6603 220.55 60.0503 220.57 60.4903C220.59 60.9303 220.53 61.3403 220.4 61.7003C220.27 62.0603 220.07 62.3703 219.82 62.6303C219.57 62.8903 219.3 63.0903 219 63.2403C218.7 63.3903 218.39 63.4903 218.09 63.5403C217.39 63.6303 216.41 63.7103 215.15 63.7703C213.89 63.8303 212.48 63.8703 210.91 63.9103C209.34 63.9503 207.7 63.9703 205.98 63.9803C204.25 63.9903 202.59 63.9803 200.99 63.9603C199.39 63.9403 197.92 63.8903 196.58 63.8203C195.24 63.7503 194.17 63.6603 193.38 63.5403L193.4 63.5303ZM196.97 55.0903C196.67 55.1603 196.33 55.1903 195.96 55.1803C195.59 55.1703 195.24 55.0903 194.91 54.9503C194.58 54.8103 194.28 54.6003 194 54.3203C193.72 54.0403 193.51 53.6803 193.37 53.2403C193.14 52.4903 193.18 51.7903 193.51 51.1403C193.84 50.4903 194.37 50.0303 195.12 49.7803C196.26 49.3603 197.29 48.8903 198.2 48.3803C199.11 47.8703 199.88 47.2403 200.51 46.4903C201.14 45.7403 201.62 44.8503 201.96 43.8103C202.3 42.7703 202.47 41.5203 202.47 40.0503V38.6103C202.47 38.1203 202.73 37.6503 203.24 37.1903C203.75 36.7303 204.43 36.5103 205.27 36.5103C206.11 36.5103 206.8 36.6803 207.42 37.0403C208.04 37.3903 208.35 37.9203 208.35 38.6103V40.6403C208.35 42.6203 208.03 44.4103 207.39 46.0003C206.75 47.5903 205.89 48.9803 204.82 50.1803C203.75 51.3803 202.53 52.3903 201.18 53.2103C199.83 54.0303 198.43 54.6603 196.98 55.1003L196.97 55.0903ZM217.2 49.9503C217.46 50.1103 217.68 50.3303 217.87 50.6003C218.06 50.8703 218.19 51.1803 218.27 51.5303C218.35 51.8803 218.36 52.2503 218.29 52.6503C218.22 53.0503 218.04 53.4603 217.76 53.8803C217.22 54.6503 216.59 55.0503 215.85 55.0903C215.11 55.1303 214.42 54.9403 213.77 54.5503L208.63 51.4003C208.37 51.2403 208.16 51.0103 208 50.7203C207.84 50.4303 207.73 50.1003 207.68 49.7403C207.63 49.3803 207.65 49.0003 207.73 48.6203C207.81 48.2403 207.97 47.8803 208.2 47.5503C208.43 47.2203 208.72 46.9703 209.06 46.7803C209.4 46.5903 209.74 46.4603 210.09 46.4003C210.44 46.3303 210.79 46.3203 211.14 46.3803C211.49 46.4403 211.78 46.5503 212.02 46.7103L217.2 49.9703V49.9503Z" fill="#231F20" stroke="white" stroke-miterlimit="10"/>
</svg>
