<svg width="231" height="100" viewBox="0 0 231 100" fill="none" xmlns="http://www.w3.org/2000/svg">
<path d="M14.6104 66.9801L24.8004 62.7601L26.8804 64.2501L30.7604 64.8501L36.2304 64.0301L41.0404 62.0501L42.8204 59.8101L43.3703 59.2101L47.9704 58.6901L53.7904 57.1901L58.1003 54.6001L61.2204 50.3801L61.5704 46.7501L60.5404 43.5701L58.1903 41.9301L54.3604 41.3601H53.6404L53.0404 39.6901L55.9504 39.1801L57.2204 36.9301L56.1003 34.3901L52.2304 32.2301L47.4104 31.0801H44.2603L41.9804 31.9201L41.0404 33.4801L40.5904 35.7201L38.5303 35.9501L34.4203 37.4301L32.8104 35.3101L29.7104 34.1301L26.6004 33.8801L22.7104 34.5401L19.6504 36.7601L17.3804 40.7101L16.3804 44.5001L17.6904 47.4101L19.9404 48.1401L21.4704 48.0001L20.9504 49.6501L21.2604 51.4301L22.3804 52.7501L19.8704 54.4901L17.8804 56.9401L16.7504 60.0101L17.1104 63.4301L17.1804 64.2701L14.6104 66.9801Z" fill="#C49A6C"/>
<path d="M61.8295 47.9099C61.6295 47.9099 61.4495 47.7899 61.3695 47.5999C61.2595 47.3399 61.3895 47.0499 61.6395 46.9499L75.7295 41.1099C75.9895 41.0099 76.2795 41.1299 76.3795 41.3799C76.4895 41.6399 76.3595 41.9299 76.1095 42.0299L62.0195 47.8699C61.9595 47.8999 61.8895 47.9099 61.8295 47.9099Z" fill="#231F20"/>
<path d="M9.55994 69.5699C9.35994 69.5699 9.17994 69.4499 9.09994 69.2599C8.98994 69.0099 9.11994 68.7099 9.36994 68.6099L24.6099 62.2899C24.8599 62.1799 25.1599 62.3099 25.2599 62.5599C25.3599 62.8099 25.2399 63.1099 24.9899 63.2099L9.74994 69.5299C9.68994 69.5599 9.61994 69.5699 9.55994 69.5699Z" fill="#231F20"/>
<path d="M31.5097 40.1003C31.3897 40.1003 31.2697 40.0603 31.1697 39.9703C30.9697 39.7803 30.9497 39.4703 31.1397 39.2603C31.1997 39.1903 37.6297 32.3203 47.5297 36.6703C47.7797 36.7803 47.8997 37.0803 47.7897 37.3303C47.6797 37.5803 47.3797 37.7003 47.1297 37.5903C37.8997 33.5403 32.1197 39.6803 31.8797 39.9403C31.7797 40.0503 31.6497 40.1003 31.5097 40.1003Z" fill="#231F20"/>
<path d="M53.8901 40.1901C52.0801 40.1901 50.3201 39.4601 50.2201 39.4201C49.9701 39.3101 49.8501 39.0201 49.9501 38.7701C50.0601 38.5101 50.3501 38.4001 50.6001 38.5001C50.6301 38.5101 53.6201 39.7501 55.4301 38.9001C56.0101 38.6301 56.4001 38.1701 56.6101 37.5101C56.8401 36.7701 56.7501 36.0901 56.3201 35.4301C55.1401 33.6001 51.3601 32.0601 46.6901 31.4901C41.5101 30.8701 40.8901 35.2201 40.8701 35.4101C40.8401 35.6801 40.5901 35.8801 40.3101 35.8401C40.0401 35.8001 39.8401 35.5501 39.8801 35.2801C39.8801 35.2201 40.6501 29.7601 46.8201 30.5001C50.7601 30.9801 55.5501 32.3801 57.1701 34.8901C57.7601 35.8101 57.9001 36.7901 57.5801 37.8101C57.2901 38.7501 56.7101 39.4201 55.8701 39.8101C55.2701 40.0901 54.5801 40.1901 53.9101 40.1901H53.8901Z" fill="#231F20"/>
<path d="M20.0897 48.6799C19.3497 48.6799 18.6297 48.5299 17.9497 48.2099C16.4597 47.4999 15.8797 45.1399 16.4697 42.1999C17.2997 38.0199 20.3997 33.6799 25.4597 33.4099C34.1597 32.9499 34.8897 37.1799 34.9197 37.3599C34.9597 37.6299 34.7697 37.8899 34.4997 37.9299C34.2197 37.9699 33.9797 37.7799 33.9297 37.5099C33.9197 37.4399 33.2097 33.9899 25.5097 34.4099C20.9897 34.6499 18.1997 38.5899 17.4497 42.3899C16.9797 44.7499 17.3697 46.8199 18.3797 47.2999C21.3597 48.7199 25.7397 45.8299 28.0797 42.3299C28.2297 42.0999 28.5397 42.0399 28.7697 42.1899C28.9997 42.3399 29.0597 42.6499 28.9097 42.8799C26.7797 46.0499 23.2197 48.6599 20.0797 48.6599L20.0897 48.6799Z" fill="#231F20"/>
<path d="M43.4795 59.7103C43.1995 59.7103 42.9795 59.4903 42.9795 59.2103C42.9795 58.9303 43.1995 58.7103 43.4795 58.7103C43.6295 58.7103 58.4795 58.6003 60.7295 49.4203C61.3595 46.8503 61.0995 44.9003 59.9495 43.6403C57.8095 41.2903 53.2295 41.9503 53.1795 41.9503C52.9095 41.9803 52.6495 41.8003 52.6095 41.5303C52.5695 41.2603 52.7595 41.0003 53.0295 40.9603C53.2395 40.9303 58.1795 40.2203 60.6795 42.9603C62.0695 44.4803 62.4095 46.7403 61.6995 49.6603C59.2595 59.5903 44.1195 59.7103 43.4795 59.7103Z" fill="#231F20"/>
<path d="M14.6096 67.4803C14.4996 67.4803 14.3896 67.4403 14.2896 67.3703C14.0796 67.2003 14.0396 66.8803 14.2196 66.6703C14.2796 66.6003 15.5296 65.0703 16.7396 64.0003C16.3296 62.4103 15.0496 55.5503 22.5096 52.3003C23.1296 52.0503 37.3896 46.6003 42.4096 55.4003C42.4296 55.4103 44.1596 57.4903 43.3996 59.8703C42.7196 61.9603 40.3496 63.5303 36.3496 64.5203C31.4896 65.7303 27.9696 65.6503 25.8896 64.3003C24.5496 63.4303 24.3396 62.3303 24.3296 62.2803C24.2796 62.0103 24.4596 61.7503 24.7396 61.7003C25.0096 61.6503 25.2696 61.8303 25.3196 62.1103C25.3196 62.1303 25.4896 62.8703 26.4796 63.5003C27.7596 64.3003 30.4596 64.9603 36.1096 63.5603C39.6996 62.6703 41.8896 61.2903 42.4396 59.5803C43.0396 57.7403 41.6096 56.0003 41.5896 55.9803C36.9396 47.8503 23.0296 53.1803 22.8896 53.2403C15.3296 56.5303 17.6696 63.7103 17.7696 64.0203C17.8396 64.2103 17.7696 64.4303 17.6196 64.5603C16.4196 65.5703 14.9996 67.3003 14.9896 67.3103C14.8896 67.4303 14.7496 67.4903 14.5996 67.4903L14.6096 67.4803Z" fill="#231F20"/>
<path d="M22.4204 53.15C19.0304 50.64 21.0504 47.74 21.0704 47.71L21.8804 48.29C21.7304 48.51 20.4704 50.47 23.0104 52.35L22.4204 53.15Z" fill="#231F20"/>
<path d="M41.51 44.9201C41.7696 44.9201 41.98 44.6201 41.98 44.2501C41.98 43.88 41.7696 43.5801 41.51 43.5801C41.2505 43.5801 41.04 43.88 41.04 44.2501C41.04 44.6201 41.2505 44.9201 41.51 44.9201Z" fill="#231F20"/>
<path d="M45.01 43.2702C45.2696 43.2702 45.48 42.9702 45.48 42.6002C45.48 42.2301 45.2696 41.9302 45.01 41.9302C44.7505 41.9302 44.54 42.2301 44.54 42.6002C44.54 42.9702 44.7505 43.2702 45.01 43.2702Z" fill="#231F20"/>
<path d="M54.6702 45.2902C54.6702 46.8102 53.4702 47.3802 51.0402 47.6902C48.6102 48.0002 47.4102 47.0102 47.4102 45.7802C47.4102 44.5502 49.1302 42.9902 51.0402 42.9902C52.9502 42.9902 54.6702 43.7002 54.6702 45.3002V45.2902Z" fill="#231F20"/>
<path d="M43.6099 51.57C42.9999 51.57 42.4499 51.46 41.9499 51.23C40.5699 50.6 40.1399 49.32 40.1299 49.27C40.0499 49.01 40.1899 48.73 40.4499 48.64C40.7099 48.55 40.9899 48.7 41.0799 48.96C41.0999 49 41.4099 49.89 42.3799 50.33C43.2899 50.74 44.4999 50.64 45.9599 50.02C46.2099 49.91 46.5099 50.03 46.6099 50.29C46.7199 50.54 46.5999 50.84 46.3399 50.94C45.3399 51.36 44.4199 51.57 43.5999 51.57H43.6099Z" fill="#231F20"/>
<path d="M79.1802 48.7098C77.5502 49.4998 75.4902 49.8998 73.0202 49.8998C71.7402 49.8998 70.5802 49.7698 69.5402 49.5198C68.5002 49.2698 67.6802 49.0098 67.0702 48.7498C66.8402 48.6298 66.5802 48.4898 66.3002 48.3098C66.0202 48.1298 65.7502 47.9298 65.4902 47.6798C65.2302 47.4298 65.0102 47.1498 64.8102 46.8398C64.6102 46.5198 64.4802 46.1698 64.4102 45.7698C64.3202 45.1898 64.2502 44.5498 64.2002 43.8598C64.1502 43.1698 64.1402 42.4698 64.1702 41.7398C64.1902 41.0198 64.2302 40.2998 64.2902 39.6098C64.3502 38.9098 64.4102 38.2698 64.4802 37.6798C64.5502 37.3098 64.6902 36.9798 64.9002 36.6998C65.1102 36.4198 65.3502 36.1798 65.6202 35.9798C65.8902 35.7798 66.1702 35.6398 66.4802 35.5398C66.7902 35.4398 67.0602 35.3998 67.3202 35.3998H78.9002C79.1602 35.3998 79.4402 35.4498 79.7402 35.5398C80.0402 35.6298 80.3302 35.7698 80.6002 35.9598C80.8702 36.1498 81.1002 36.3798 81.3002 36.6598C81.5002 36.9398 81.6302 37.2698 81.7002 37.6398C81.8202 38.2698 81.9002 38.9598 81.9602 39.7198C82.0202 40.4798 82.0502 41.2398 82.0602 42.0098C82.0702 42.7798 82.0402 43.5298 81.9702 44.2698C81.9002 44.9998 81.7902 45.6498 81.6602 46.2098C81.5902 46.5098 81.4602 46.7898 81.2602 47.0498C81.0602 47.3098 80.8502 47.5398 80.6102 47.7498C80.3802 47.9598 80.1302 48.1398 79.8802 48.2898C79.6202 48.4398 79.3902 48.5798 79.1802 48.6898V48.7098ZM72.0402 61.1998C72.1302 61.4598 72.3402 61.6298 72.6702 61.7298C73.0402 61.7998 73.4902 61.8698 74.0202 61.9398C74.5502 62.0098 75.1202 62.0598 75.7402 62.0998C76.3602 62.1398 77.0002 62.1598 77.6602 62.1898C78.3302 62.2098 78.9702 62.2198 79.6002 62.2198C80.3202 62.2198 81.0702 62.1998 81.8402 62.1498C82.6102 62.0998 83.3802 62.0298 84.1502 61.9398C84.9202 61.8498 85.6602 61.7398 86.3702 61.6198C87.0802 61.4998 87.7402 61.3698 88.3502 61.2398C89.1402 61.0498 89.8002 61.0798 90.3102 61.3298C90.8202 61.5698 91.1602 61.9998 91.3302 62.6098C91.4902 63.1698 91.4202 63.6898 91.1202 64.1698C90.8202 64.6498 90.3602 64.9898 89.7602 65.1998C89.0602 65.4598 88.2402 65.6598 87.3102 65.8098C86.3802 65.9598 85.4002 66.0798 84.3902 66.1798C83.3702 66.2698 82.3702 66.3398 81.3802 66.3698C80.3902 66.4098 79.4802 66.4198 78.6702 66.4198C77.8602 66.4198 77.0402 66.4098 76.1502 66.3798C75.2602 66.3598 74.3902 66.2998 73.5402 66.2198C72.6902 66.1398 71.8902 66.0298 71.1402 65.9098C70.3902 65.7798 69.7502 65.6098 69.2102 65.3998C68.7002 65.1898 68.1602 64.8098 67.6002 64.2598C67.0402 63.7098 66.6802 63.0498 66.5202 62.2798C66.3302 61.4598 66.2702 60.7098 66.3502 60.0198C66.4202 59.3298 66.4902 58.7998 66.5602 58.4298C66.6802 57.7298 66.9402 57.2098 67.3602 56.8698C67.7802 56.5298 68.1802 56.3598 68.5502 56.3598H85.1002V55.6298C85.0802 55.3698 84.8302 55.2398 84.3702 55.2398H68.6202C68.2702 55.2398 67.8902 55.0698 67.4802 54.7298C67.0702 54.3898 66.8702 53.8498 66.8702 53.0998C66.8702 52.4898 67.0502 51.9998 67.4102 51.6098C67.7702 51.2298 68.1502 51.0298 68.5502 51.0298H88.0402C88.3002 51.0298 88.5602 51.0998 88.8502 51.2198C89.1302 51.3498 89.4002 51.5398 89.6602 51.7998C89.9202 52.0598 90.1402 52.3798 90.3402 52.7598C90.5402 53.1398 90.6702 53.6098 90.7402 54.1398C90.8602 54.9598 90.8902 55.7298 90.8402 56.4498C90.7902 57.1698 90.7102 57.8398 90.5902 58.4498C90.4002 59.2698 90.0702 59.8198 89.5702 60.1098C89.0802 60.3998 88.5702 60.5498 88.0302 60.5498H72.0402V61.1798V61.1998ZM76.2702 41.2498C76.2502 41.1298 76.2002 40.9898 76.1302 40.8298C76.0602 40.6698 75.8502 40.5898 75.5002 40.5898H70.7102C70.3602 40.5898 70.1502 40.6798 70.0802 40.8498C70.0102 41.0298 69.9602 41.1698 69.9402 41.2898C69.9202 41.5198 69.9002 41.8698 69.8902 42.3398C69.8802 42.8098 69.9102 43.2398 69.9802 43.6298C70.0502 44.0498 70.3002 44.3298 70.7202 44.4698C71.0502 44.5598 71.4002 44.6198 71.7702 44.6498C72.1402 44.6698 72.6102 44.6798 73.1702 44.6798C73.7802 44.6798 74.2702 44.6598 74.6602 44.6098C75.0402 44.5598 75.3802 44.5098 75.6602 44.4298C75.9902 44.3098 76.1802 44.0098 76.2502 43.5198C76.2702 43.3798 76.2902 43.1998 76.3002 42.9798C76.3102 42.7598 76.3202 42.5398 76.3202 42.3098V41.6798C76.3202 41.4798 76.3102 41.3398 76.2902 41.2398L76.2702 41.2498ZM90.4402 37.3998C90.5602 38.3598 90.6302 39.2098 90.6502 39.9498H92.5002C93.1302 39.9498 93.6702 40.2098 94.1102 40.7198C94.5502 41.2298 94.7802 41.8298 94.7802 42.5098C94.7802 42.8098 94.7402 43.1198 94.6602 43.4198C94.5802 43.7198 94.4502 43.9998 94.2702 44.2598C94.1002 44.5198 93.8702 44.7298 93.6002 44.8898C93.3302 45.0498 93.0202 45.1398 92.6702 45.1398H90.6402C90.5702 45.9298 90.5002 46.8098 90.4302 47.7698C90.4102 48.1398 90.3002 48.4898 90.1202 48.8198C89.9302 49.1498 89.7002 49.4198 89.4202 49.6398C89.1402 49.8598 88.8102 50.0298 88.4402 50.1498C88.0702 50.2698 87.6702 50.2998 87.2502 50.2498C86.3602 50.1298 85.6802 49.7898 85.2002 49.2198C84.7202 48.6498 84.5202 48.0098 84.5902 47.3098C84.6802 46.5398 84.7502 45.7298 84.7802 44.8798C84.8202 44.0298 84.8302 43.1898 84.8202 42.3598C84.8102 41.5298 84.7802 40.7298 84.7502 39.9598C84.7202 39.1898 84.6602 38.4998 84.5902 37.8998C84.5202 37.2198 84.7102 36.5998 85.1702 36.0298C85.6302 35.4598 86.2802 35.1098 87.1502 34.9998C88.0102 34.8798 88.7502 35.0698 89.3602 35.5598C89.9702 36.0498 90.3302 36.6698 90.4402 37.4098V37.3998Z" fill="#B0C4DD"/>
<path d="M78.6598 66.9098C77.8598 66.9098 77.0198 66.8998 76.1298 66.8698C75.2298 66.8498 74.3398 66.7898 73.4898 66.7098C72.6298 66.6298 71.8098 66.5198 71.0598 66.3898C70.2798 66.2598 69.5998 66.0798 69.0398 65.8498C68.4598 65.6098 67.8698 65.1998 67.2598 64.5998C66.6298 63.9798 66.2198 63.2298 66.0398 62.3698C65.8398 61.5098 65.7798 60.6998 65.8598 59.9598C65.9298 59.2498 65.9998 58.7098 66.0798 58.3298C66.2098 57.5198 66.5498 56.8898 67.0598 56.4798C67.5698 56.0698 68.0798 55.8598 68.5598 55.8598H84.6098V55.7598C84.6098 55.7598 84.4898 55.7398 84.3798 55.7398H68.6298C68.1598 55.7398 67.6698 55.5298 67.1698 55.1198C66.6398 54.6798 66.3798 54.0098 66.3798 53.1098C66.3798 52.3698 66.6098 51.7598 67.0598 51.2798C67.5198 50.7898 68.0198 50.5498 68.5598 50.5498H86.3798C85.7598 50.3398 85.2498 49.9998 84.8598 49.5298C84.2898 48.8498 84.0498 48.0898 84.1298 47.2498C84.2198 46.4798 84.2898 45.6798 84.3198 44.8498C84.3498 44.0198 84.3698 43.1798 84.3498 42.3598C84.3398 41.5398 84.3198 40.7398 84.2798 39.9798C84.2498 39.2298 84.1898 38.5498 84.1298 37.9498C84.0498 37.1398 84.2798 36.3898 84.8098 35.7098C85.3498 35.0398 86.1198 34.6298 87.1098 34.4898C88.1098 34.3598 88.9798 34.5798 89.6998 35.1598C90.3998 35.7298 90.8298 36.4598 90.9698 37.3298V37.3498C91.0698 38.1198 91.1298 38.8298 91.1598 39.4698H92.5398C93.3198 39.4698 93.9898 39.7898 94.5298 40.4098C95.0498 41.0198 95.3198 41.7298 95.3198 42.5198C95.3198 42.8698 95.2698 43.2198 95.1798 43.5598C95.0798 43.9198 94.9298 44.2498 94.7198 44.5498C94.5098 44.8598 94.2298 45.1298 93.8998 45.3298C93.5498 45.5398 93.1498 45.6498 92.7098 45.6498H91.1398C91.0798 46.3198 91.0298 47.0398 90.9698 47.8098C90.9398 48.2498 90.8098 48.6798 90.5898 49.0698C90.3698 49.4498 90.0898 49.7798 89.7698 50.0398C89.4398 50.2998 89.0598 50.4998 88.6298 50.6298C88.6298 50.6298 88.6198 50.6298 88.6098 50.6298C88.7598 50.6698 88.9198 50.7198 89.0698 50.7898C89.3998 50.9398 89.7198 51.1698 90.0198 51.4698C90.3098 51.7598 90.5698 52.1298 90.7898 52.5598C91.0098 52.9898 91.1698 53.5098 91.2398 54.0998C91.3598 54.9398 91.3998 55.7598 91.3498 56.5098C91.2998 57.2498 91.2198 57.9398 91.0998 58.5698C90.8798 59.5398 90.4598 60.1998 89.8498 60.5698C89.8098 60.5998 89.7598 60.6198 89.7198 60.6498C90.0198 60.6898 90.2998 60.7598 90.5498 60.8798C91.1998 61.1898 91.6298 61.7298 91.8298 62.4798C92.0298 63.1698 91.9398 63.8298 91.5598 64.4398C91.1998 65.0098 90.6498 65.4298 89.9398 65.6798C89.2198 65.9398 88.3698 66.1598 87.4098 66.3098C86.4598 66.4598 85.4598 66.5898 84.4498 66.6798C83.4298 66.7698 82.3998 66.8398 81.4098 66.8698C80.4098 66.9098 79.4998 66.9198 78.6798 66.9198L78.6598 66.9098ZM68.5498 56.8698C68.2998 56.8698 67.9998 56.9998 67.6698 57.2698C67.3498 57.5298 67.1398 57.9498 67.0498 58.5198C66.9798 58.8898 66.9098 59.4098 66.8398 60.0798C66.7798 60.7098 66.8398 61.4198 66.9998 62.1798C67.1498 62.8598 67.4498 63.4298 67.9498 63.9098C68.4598 64.4098 68.9498 64.7598 69.3998 64.9398C69.8898 65.1298 70.5098 65.2998 71.2198 65.4198C71.9498 65.5398 72.7398 65.6498 73.5798 65.7298C74.4098 65.8098 75.2698 65.8598 76.1498 65.8898C77.9398 65.9398 79.4098 65.9398 81.3498 65.8698C82.3198 65.8398 83.3298 65.7698 84.3298 65.6798C85.3198 65.5898 86.2898 65.4698 87.2198 65.3198C88.1198 65.1698 88.9098 64.9798 89.5798 64.7298C90.0898 64.5498 90.4498 64.2798 90.6898 63.8998C90.9098 63.5498 90.9598 63.1698 90.8398 62.7498C90.7098 62.2798 90.4698 61.9598 90.0898 61.7798C89.6798 61.5898 89.1398 61.5698 88.4598 61.7298C87.8398 61.8698 87.1698 61.9998 86.4498 62.1198C85.7298 62.2398 84.9798 62.3398 84.2098 62.4398C83.4298 62.5298 82.6398 62.6098 81.8698 62.6498C80.3998 62.7398 79.0798 62.7298 77.6398 62.6898C76.9698 62.6698 76.3298 62.6398 75.6998 62.5998C75.0698 62.5598 74.4798 62.5098 73.9498 62.4398C73.4098 62.3698 72.9598 62.2998 72.5798 62.2298C71.9198 62.0498 71.6698 61.6698 71.5698 61.3798L71.5398 61.2098V60.0798H88.0298C88.4798 60.0798 88.8998 59.9598 89.3098 59.7098C89.6798 59.4898 89.9398 59.0398 90.0898 58.3698C90.1998 57.8098 90.2798 57.1498 90.3198 56.4498C90.3598 55.7698 90.3198 55.0198 90.2198 54.2398C90.1598 53.7598 90.0398 53.3498 89.8698 53.0198C89.6998 52.6798 89.4998 52.3998 89.2798 52.1798C89.0698 51.9698 88.8398 51.8098 88.6198 51.6998C88.4098 51.5998 88.1998 51.5498 88.0198 51.5498H68.5298C68.2798 51.5498 68.0198 51.6898 67.7598 51.9698C67.4898 52.2598 67.3498 52.6398 67.3498 53.1198C67.3498 53.7098 67.4998 54.1298 67.7798 54.3598C68.0898 54.6198 68.3698 54.7498 68.5998 54.7498H84.3498C85.3898 54.7498 85.5598 55.3398 85.5798 55.5898V56.8698H68.5298H68.5498ZM72.5498 61.0898C72.5498 61.0898 72.6498 61.1998 72.8198 61.2498C73.1398 61.3098 73.5798 61.3798 74.0998 61.4498C74.6098 61.5198 75.1698 61.5698 75.7798 61.5998C76.3898 61.6398 77.0298 61.6598 77.6898 61.6898C79.0898 61.7398 80.3898 61.7398 81.8298 61.6598C82.5798 61.6098 83.3498 61.5398 84.1098 61.4498C84.8698 61.3598 85.6098 61.2498 86.3098 61.1398C86.4198 61.1198 86.5298 61.0998 86.6398 61.0798L72.5498 61.0998V61.0898ZM87.6498 35.4498C87.5198 35.4498 87.3798 35.4498 87.2298 35.4798C86.4898 35.5798 85.9498 35.8598 85.5798 36.3298C85.2098 36.7998 85.0498 37.2898 85.1098 37.8398C85.1798 38.4598 85.2298 39.1598 85.2698 39.9298C85.3098 40.6998 85.3298 41.5098 85.3398 42.3398C85.3498 43.1798 85.3398 44.0398 85.2998 44.8898C85.2598 45.7498 85.1998 46.5798 85.0998 47.3598C85.0398 47.9198 85.2098 48.4198 85.5998 48.8898C85.9998 49.3698 86.5598 49.6498 87.3298 49.7498C87.6698 49.7898 87.9998 49.7498 88.3098 49.6598C88.6198 49.5598 88.8998 49.4198 89.1298 49.2398C89.3598 49.0598 89.5498 48.8298 89.7098 48.5598C89.8598 48.2998 89.9398 48.0298 89.9598 47.7298C90.0298 46.7698 90.0998 45.8898 90.1698 45.0898L90.2098 44.6298H92.6998C92.9598 44.6298 93.1798 44.5698 93.3698 44.4598C93.5798 44.3398 93.7498 44.1698 93.8798 43.9798C94.0198 43.7698 94.1298 43.5398 94.1998 43.2898C94.2698 43.0298 94.2998 42.7698 94.2998 42.5098C94.2998 41.9498 94.1198 41.4798 93.7598 41.0498C93.4098 40.6498 93.0098 40.4498 92.5298 40.4498H90.1898L90.1698 39.9698C90.1498 39.2398 90.0798 38.3998 89.9598 37.4698C89.8598 36.8498 89.5598 36.3498 89.0598 35.9298C88.6598 35.6098 88.1998 35.4498 87.6498 35.4498ZM73.0298 50.3898C71.7098 50.3898 70.4998 50.2598 69.4298 49.9898C68.3698 49.7298 67.5098 49.4598 66.8898 49.1898C66.6198 49.0498 66.3498 48.8998 66.0498 48.7198C65.7398 48.5298 65.4398 48.2998 65.1598 48.0298C64.8698 47.7598 64.6198 47.4398 64.3998 47.0898C64.1698 46.7198 64.0098 46.2998 63.9298 45.8398C63.8298 45.2298 63.7598 44.5798 63.7098 43.8798C63.6598 43.1798 63.6498 42.4498 63.6698 41.7098C63.6898 40.9798 63.7298 40.2598 63.7898 39.5498C63.8498 38.8398 63.9098 38.1998 63.9798 37.6098C64.0698 37.1298 64.2398 36.7298 64.4998 36.3898C64.7398 36.0698 65.0198 35.7998 65.3198 35.5698C65.6298 35.3398 65.9698 35.1698 66.3298 35.0598C66.6798 34.9498 67.0098 34.8998 67.3198 34.8998H78.8998C79.1998 34.8998 79.5398 34.9498 79.8898 35.0598C80.2398 35.1698 80.5798 35.3298 80.8898 35.5498C81.2098 35.7698 81.4798 36.0498 81.7098 36.3698C81.9498 36.7098 82.1098 37.1098 82.1998 37.5498C82.3198 38.1898 82.4098 38.9098 82.4698 39.6898C82.5298 40.4498 82.5598 41.2298 82.5798 42.0098C82.5898 42.7998 82.5598 43.5798 82.4898 44.3198C82.4198 45.0798 82.3098 45.7498 82.1598 46.3398C82.0798 46.6998 81.9098 47.0498 81.6698 47.3598C81.4598 47.6298 81.2198 47.8898 80.9598 48.1298C80.6998 48.3598 80.4298 48.5598 80.1398 48.7298C79.8798 48.8798 79.6398 49.0198 79.4298 49.1398H79.4098C77.7198 49.9798 75.5698 50.3898 73.0298 50.3898ZM67.3198 35.8998C67.1098 35.8998 66.8798 35.9398 66.6298 36.0198C66.3798 36.0998 66.1398 36.2198 65.9198 36.3798C65.6898 36.5498 65.4898 36.7598 65.3098 36.9998C65.1398 37.2198 65.0398 37.4698 64.9798 37.7698C64.9198 38.3198 64.8498 38.9498 64.7898 39.6498C64.7298 40.3398 64.6898 41.0398 64.6698 41.7598C64.6498 42.4598 64.6598 43.1598 64.6998 43.8298C64.7398 44.4998 64.8098 45.1198 64.8998 45.6898C64.9598 46.0198 65.0698 46.3098 65.2298 46.5698C65.4098 46.8498 65.6098 47.0998 65.8298 47.3098C66.0598 47.5298 66.2998 47.7198 66.5598 47.8798C66.8198 48.0498 67.0698 48.1798 67.2898 48.2898C67.8398 48.5198 68.6498 48.7698 69.6498 49.0198C70.6398 49.2698 71.7698 49.3898 73.0098 49.3898C75.3898 49.3898 77.3798 49.0098 78.9398 48.2598C79.1398 48.1498 79.3698 48.0198 79.6198 47.8698C79.8498 47.7398 80.0698 47.5698 80.2798 47.3898C80.4898 47.1998 80.6898 46.9798 80.8698 46.7598C81.0298 46.5598 81.1298 46.3498 81.1798 46.1098C81.3198 45.5698 81.4198 44.9398 81.4798 44.2298C81.5498 43.5198 81.5798 42.7798 81.5598 42.0298C81.5498 41.2698 81.5098 40.5098 81.4598 39.7698C81.3998 39.0298 81.3198 38.3498 81.1998 37.7398C81.1398 37.4398 81.0398 37.1798 80.8798 36.9598C80.7198 36.7298 80.5198 36.5398 80.2998 36.3798C80.0798 36.2198 79.8298 36.1098 79.5798 36.0298C79.3298 35.9498 79.0898 35.9098 78.8898 35.9098H67.3098L67.3198 35.8998ZM73.1598 45.1698C72.5898 45.1698 72.1098 45.1598 71.7298 45.1298C71.3198 45.0998 70.9298 45.0398 70.5698 44.9398C69.9498 44.7298 69.5798 44.3098 69.4798 43.6998C69.4098 43.2798 69.3698 42.8098 69.3898 42.3098C69.3998 41.8298 69.4198 41.4598 69.4498 41.2198C69.4798 41.0298 69.5398 40.8598 69.6198 40.6498C69.7298 40.3898 69.9998 40.0698 70.7098 40.0698H75.4998C76.2098 40.0698 76.4798 40.3698 76.5898 40.6198C76.6698 40.8098 76.7298 40.9798 76.7598 41.1298C76.7898 41.2598 76.8098 41.4398 76.8098 41.6798V42.3098C76.8098 42.5398 76.8098 42.7698 76.7898 42.9998C76.7798 43.2498 76.7598 43.4398 76.7298 43.5998C76.6098 44.4398 76.1598 44.7698 75.8098 44.8998C75.4598 44.9898 75.1098 45.0498 74.6998 45.0998C74.2898 45.1498 73.7898 45.1698 73.1498 45.1698H73.1598ZM70.5198 41.0898C70.4798 41.1998 70.4498 41.2898 70.4298 41.3698C70.4098 41.5498 70.3998 41.8898 70.3898 42.3398C70.3798 42.7698 70.4098 43.1698 70.4698 43.5398C70.5098 43.7798 70.6298 43.9098 70.8698 43.9898C71.1398 44.0698 71.4598 44.1198 71.7898 44.1398C72.1498 44.1598 72.6098 44.1698 73.1598 44.1698C73.7498 44.1698 74.2298 44.1498 74.5898 44.0998C74.9498 44.0598 75.2598 43.9998 75.5298 43.9398C75.6198 43.9098 75.7098 43.7298 75.7498 43.4398C75.7698 43.2998 75.7898 43.1398 75.7998 42.9398C75.8098 42.7298 75.8198 42.5198 75.8198 42.2998V41.6698C75.8198 41.4498 75.7998 41.3698 75.7998 41.3498V41.3298C75.7998 41.3298 75.7598 41.1998 75.7198 41.0798C75.6798 41.0798 75.6198 41.0598 75.5198 41.0598H70.7298C70.6298 41.0598 70.5698 41.0598 70.5398 41.0798L70.5198 41.0898Z" fill="#231F20"/>
<path d="M97.4199 48.2498C97.2599 47.4998 97.1899 46.6698 97.2099 45.7498C97.2299 44.8298 97.3399 43.9898 97.5199 43.2498C97.6599 42.6898 97.9199 42.2198 98.3099 41.8298C98.6999 41.4498 99.0599 41.2498 99.4099 41.2498H109.21C109.23 41.1598 109.25 41.0198 109.25 40.8498V40.4098C109.25 40.1798 109.11 40.0598 108.83 40.0598H99.8299C99.2199 40.0598 98.7299 39.8198 98.3599 39.3398C97.9899 38.8598 97.7999 38.3198 97.7999 37.7098C97.7999 37.0998 97.9899 36.5698 98.3599 36.0998C98.7299 35.6298 99.2199 35.3998 99.8299 35.3998H111.94C112.69 35.3998 113.3 35.6498 113.79 36.1298C114.28 36.6198 114.57 37.1998 114.67 37.8798C114.72 38.3198 114.75 38.8198 114.77 39.3698C114.79 39.9198 114.8 40.4698 114.8 41.0198C114.8 41.5698 114.78 42.0798 114.73 42.5598C114.68 43.0398 114.61 43.4398 114.52 43.7698C114.33 44.4198 114 44.9398 113.5 45.3298C113.01 45.7198 112.5 45.9098 111.96 45.9098H102.83V46.7098C102.83 46.9898 102.98 47.1898 103.29 47.3098C103.76 47.4298 104.33 47.5098 105 47.5498C105.68 47.5998 106.39 47.6198 107.13 47.6198C107.67 47.6198 108.22 47.5998 108.79 47.5498C109.36 47.4998 109.91 47.4398 110.44 47.3598C110.96 47.2798 111.43 47.1898 111.84 47.0998C112.25 47.0098 112.53 46.9098 112.7 46.8198C112.98 46.6998 113.28 46.6398 113.61 46.6298C113.94 46.6198 114.25 46.6698 114.56 46.7898C114.86 46.9098 115.14 47.0898 115.4 47.3298C115.66 47.5698 115.83 47.8998 115.92 48.2898C116.01 48.6598 116.01 48.9998 115.92 49.2998C115.83 49.5998 115.69 49.8798 115.5 50.1198C115.31 50.3698 115.1 50.5698 114.87 50.7298C114.64 50.8898 114.43 51.0098 114.24 51.0798C113.8 51.2898 113.28 51.4798 112.7 51.6398C112.12 51.7998 111.5 51.9398 110.85 52.0398C110.2 52.1398 109.54 52.2298 108.87 52.2898C108.2 52.3498 107.58 52.3798 107 52.3798C106.35 52.3798 105.69 52.3498 105.02 52.2898C104.35 52.2298 103.72 52.1498 103.11 52.0398C102.5 51.9298 101.94 51.8098 101.41 51.6698C100.88 51.5298 100.44 51.3798 100.06 51.2098C99.8299 51.0898 99.5799 50.9498 99.3099 50.7698C99.0399 50.5898 98.7799 50.3798 98.5199 50.1398C98.2599 49.8898 98.0299 49.6098 97.8199 49.2998C97.6099 48.9898 97.4699 48.6298 97.3999 48.2298L97.4199 48.2498ZM124.13 60.0098C124.13 61.2698 123.77 62.3298 123.05 63.1898C122.33 64.0498 121.37 64.7498 120.18 65.2698C118.99 65.7998 117.63 66.1698 116.08 66.4098C114.54 66.6398 112.95 66.7598 111.32 66.7598C109.69 66.7598 108.1 66.6398 106.56 66.4098C105.02 66.1798 103.65 65.7998 102.46 65.2698C101.27 64.7498 100.31 64.0498 99.5899 63.1898C98.8699 62.3298 98.5099 61.2698 98.5099 60.0098C98.5099 58.7498 98.8699 57.6898 99.5899 56.8198C100.31 55.9498 101.27 55.2598 102.46 54.7398C103.65 54.2098 105.02 53.8398 106.56 53.5998C108.1 53.3598 109.69 53.2498 111.32 53.2498C112.95 53.2498 114.54 53.3698 116.08 53.5998C117.62 53.8298 118.98 54.2098 120.18 54.7398C121.37 55.2598 122.33 55.9598 123.05 56.8198C123.77 57.6798 124.13 58.7398 124.13 60.0098ZM118.25 60.0098C118.25 59.3298 117.69 58.8598 116.57 58.5898C115.45 58.3198 113.69 58.1898 111.29 58.1898C108.89 58.1898 107.14 58.3198 106.04 58.5898C104.94 58.8598 104.39 59.3298 104.39 60.0098C104.39 60.6898 104.94 61.1898 106.04 61.4398C107.14 61.6998 108.89 61.8198 111.29 61.8198C113.69 61.8198 115.46 61.6898 116.57 61.4198C117.69 61.1498 118.25 60.6798 118.25 59.9998V60.0098ZM123.36 37.3998C123.41 37.9798 123.45 38.5698 123.5 39.1698C123.55 39.7598 123.58 40.3798 123.6 41.0098H125.42C125.75 41.0098 126.04 41.0898 126.31 41.2398C126.58 41.3898 126.82 41.5998 127.03 41.8498C127.24 42.1098 127.4 42.3998 127.52 42.7298C127.64 43.0598 127.7 43.3998 127.7 43.7498C127.7 44.0498 127.66 44.3698 127.58 44.6898C127.5 45.0198 127.37 45.3198 127.2 45.5998C127.03 45.8798 126.8 46.1098 126.53 46.2798C126.26 46.4498 125.95 46.5398 125.6 46.5398H123.6C123.58 47.2198 123.54 47.8798 123.5 48.5198C123.45 49.1598 123.41 49.7898 123.36 50.3898C123.34 50.7598 123.23 51.1098 123.05 51.4398C122.86 51.7698 122.63 52.0398 122.35 52.2598C122.07 52.4798 121.74 52.6498 121.37 52.7698C121 52.8898 120.6 52.9198 120.18 52.8698C119.29 52.7498 118.62 52.4098 118.15 51.8398C117.68 51.2698 117.47 50.6298 117.52 49.9298C117.61 48.8798 117.68 47.8598 117.71 46.8898C117.75 45.9098 117.76 44.9398 117.76 43.9698C117.76 42.9998 117.74 42.0198 117.69 41.0298C117.64 40.0398 117.59 38.9898 117.52 37.8998C117.47 37.2198 117.67 36.5998 118.11 36.0298C118.55 35.4598 119.21 35.1098 120.07 34.9998C120.93 34.8798 121.67 35.0698 122.28 35.5598C122.89 36.0498 123.25 36.6698 123.36 37.4098V37.3998Z" fill="#B0C4DD"/>
<path d="M111.31 67.2698C109.66 67.2698 108.04 67.1498 106.48 66.9098C104.9 66.6698 103.48 66.2798 102.26 65.7398C101.01 65.1898 99.9799 64.4398 99.2099 63.5198C98.4099 62.5698 98.0099 61.3898 98.0099 60.0098C98.0099 58.6298 98.4099 57.4598 99.2099 56.4998C99.9799 55.5798 101.01 54.8298 102.26 54.2798C103.48 53.7398 104.9 53.3498 106.48 53.1098C109.6 52.6398 113.03 52.6398 116.15 53.1098C117.73 53.3498 119.15 53.7398 120.37 54.2798C121.62 54.8298 122.65 55.5798 123.42 56.4998C124.22 57.4498 124.62 58.6298 124.62 60.0098C124.62 61.3898 124.22 62.5598 123.42 63.5198C122.65 64.4398 121.62 65.1898 120.37 65.7398C119.15 66.2798 117.72 66.6798 116.15 66.9098C114.59 67.1498 112.96 67.2698 111.32 67.2698H111.31ZM111.31 53.7598C109.71 53.7598 108.14 53.8798 106.62 54.0998C105.13 54.3298 103.79 54.6998 102.65 55.1998C101.54 55.6898 100.63 56.3498 99.9599 57.1498C99.3099 57.9298 98.9899 58.8598 98.9899 60.0098C98.9899 61.1598 99.3099 62.0998 99.9599 62.8698C100.63 63.6698 101.53 64.3298 102.65 64.8198C103.79 65.3198 105.13 65.6998 106.62 65.9198C109.64 66.3798 112.97 66.3798 115.99 65.9198C117.48 65.6898 118.81 65.3198 119.96 64.8198C121.07 64.3298 121.98 63.6698 122.65 62.8698C123.3 62.0898 123.62 61.1598 123.62 60.0098C123.62 58.8598 123.3 57.9198 122.65 57.1498C121.98 56.3498 121.07 55.6898 119.96 55.1998C118.82 54.6998 117.48 54.3198 115.99 54.0998C114.48 53.8698 112.9 53.7598 111.3 53.7598H111.31ZM111.28 62.3398C108.81 62.3398 107.06 62.2098 105.92 61.9398C104.24 61.5498 103.89 60.6798 103.89 60.0198C103.89 59.3598 104.24 58.5298 105.92 58.1198C107.07 57.8398 108.82 57.6998 111.29 57.6998C113.76 57.6998 115.54 57.8398 116.69 58.1198C118.4 58.5298 118.75 59.3798 118.75 60.0198C118.75 60.6598 118.39 61.5198 116.69 61.9198C115.53 62.1998 113.72 62.3398 111.29 62.3398H111.28ZM111.28 58.6998C108.93 58.6998 107.2 58.8298 106.15 59.0898C105.31 59.2998 104.89 59.6098 104.89 60.0198C104.89 60.1798 104.89 60.6698 106.15 60.9698C107.2 61.2198 108.93 61.3398 111.29 61.3398C113.65 61.3398 115.38 61.2098 116.46 60.9498C117.32 60.7398 117.76 60.4298 117.76 60.0198C117.76 59.6098 117.32 59.2898 116.46 59.0898C115.38 58.8298 113.64 58.6998 111.29 58.6998H111.28ZM120.52 53.3998C120.39 53.3998 120.25 53.3998 120.11 53.3798C119.09 53.2498 118.3 52.8398 117.75 52.1698C117.2 51.4998 116.95 50.7398 117.01 49.9098C117.1 48.8598 117.17 47.8398 117.2 46.8798C117.24 45.9098 117.25 44.9398 117.25 43.9798C117.25 43.0198 117.23 42.0398 117.18 41.0598C117.13 40.0698 117.08 39.0298 117.01 37.9398C116.95 37.1398 117.19 36.3998 117.71 35.7298C118.23 35.0498 119 34.6398 120 34.5098C121 34.3798 121.87 34.5998 122.59 35.1798C123.29 35.7498 123.72 36.4798 123.85 37.3498V37.3898L123.99 39.1598C124.03 39.6098 124.05 40.0698 124.08 40.5398H125.42C125.83 40.5398 126.22 40.6398 126.56 40.8298C126.88 41.0098 127.17 41.2598 127.42 41.5598C127.66 41.8598 127.86 42.1998 127.99 42.5798C128.13 42.9598 128.2 43.3598 128.2 43.7598C128.2 44.0998 128.15 44.4598 128.06 44.8298C127.97 45.2098 127.82 45.5598 127.61 45.8798C127.4 46.2198 127.12 46.4998 126.8 46.7198C126.45 46.9498 126.04 47.0598 125.6 47.0598H124.09C124.07 47.5698 124.04 48.0798 124 48.5698L123.86 50.4498C123.83 50.8898 123.7 51.3198 123.48 51.7098C123.26 52.0898 122.98 52.4198 122.66 52.6798C122.33 52.9398 121.95 53.1398 121.52 53.2698C121.21 53.3698 120.88 53.4198 120.53 53.4198L120.52 53.3998ZM120.55 35.4598C120.42 35.4598 120.28 35.4598 120.13 35.4898C119.39 35.5898 118.86 35.8698 118.5 36.3298C118.13 36.8098 117.97 37.3098 118.01 37.8598C118.08 38.9598 118.14 40.0098 118.18 40.9998C118.23 41.9898 118.25 42.9898 118.25 43.9598C118.25 44.9298 118.23 45.9098 118.2 46.8998C118.16 47.8798 118.1 48.9098 118.01 49.9698C117.97 50.5298 118.14 51.0398 118.53 51.5198C118.92 51.9998 119.48 52.2698 120.24 52.3698C120.57 52.4098 120.91 52.3698 121.22 52.2798C121.53 52.1798 121.81 52.0398 122.04 51.8598C122.27 51.6798 122.46 51.4598 122.62 51.1798C122.77 50.9198 122.85 50.6498 122.87 50.3498L123.01 48.4698C123.06 47.8398 123.09 47.1798 123.11 46.5098L123.13 46.0298H125.61C125.86 46.0298 126.08 45.9698 126.27 45.8498C126.48 45.7198 126.65 45.5398 126.78 45.3198C126.93 45.0798 127.03 44.8298 127.1 44.5498C127.17 44.2598 127.21 43.9898 127.21 43.7298C127.21 43.4398 127.16 43.1498 127.06 42.8798C126.96 42.5998 126.83 42.3698 126.65 42.1498C126.48 41.9398 126.29 41.7798 126.07 41.6598C125.88 41.5498 125.67 41.4998 125.42 41.4998H123.12L123.1 41.0198C123.08 40.3998 123.04 39.7898 123 39.1998L122.86 37.4498C122.76 36.8298 122.46 36.3298 121.96 35.9298C121.56 35.6098 121.1 35.4498 120.55 35.4498V35.4598ZM107.01 52.8898C106.34 52.8898 105.66 52.8598 104.99 52.7998C104.32 52.7398 103.66 52.6598 103.04 52.5498C102.42 52.4398 101.83 52.3098 101.3 52.1698C100.75 52.0198 100.27 51.8598 99.8799 51.6898C99.6099 51.5598 99.3399 51.3998 99.0499 51.2098C98.7599 51.0198 98.4699 50.7898 98.1899 50.5198C97.9099 50.2498 97.6499 49.9398 97.4199 49.5898C97.1699 49.2198 97.0099 48.7998 96.9299 48.3398C96.7599 47.5598 96.6899 46.6798 96.7099 45.7298C96.7299 44.7798 96.8399 43.8998 97.0399 43.1198C97.1999 42.4698 97.5099 41.9198 97.9599 41.4698C98.4399 40.9898 98.9299 40.7498 99.4199 40.7498H108.75V40.5598H99.8299C99.0599 40.5598 98.4399 40.2498 97.9699 39.6498C97.5299 39.0798 97.2999 38.4298 97.2999 37.7098C97.2999 36.9898 97.5299 36.3398 97.9699 35.7898C98.4399 35.1998 99.0699 34.8998 99.8299 34.8998H111.94C112.82 34.8998 113.56 35.1998 114.15 35.7798C114.72 36.3498 115.06 37.0298 115.17 37.8098C115.22 38.2798 115.25 38.7898 115.28 39.3398C115.3 39.8998 115.32 40.4498 115.32 41.0098C115.32 41.5698 115.3 42.0998 115.25 42.5998C115.2 43.0998 115.12 43.5398 115.02 43.8998C114.8 44.6498 114.4 45.2598 113.83 45.7098C113.57 45.9198 113.3 46.0798 113.02 46.1898C113.21 46.1398 113.41 46.1198 113.61 46.1098C114.01 46.1098 114.39 46.1598 114.75 46.2998C115.11 46.4398 115.45 46.6598 115.76 46.9498C116.09 47.2598 116.31 47.6698 116.43 48.1598C116.54 48.6198 116.54 49.0498 116.43 49.4398C116.32 49.7998 116.15 50.1298 115.93 50.4198C115.71 50.7098 115.46 50.9498 115.19 51.1398C114.92 51.3298 114.67 51.4598 114.45 51.5498C114.02 51.7598 113.47 51.9498 112.87 52.1198C112.27 52.2898 111.63 52.4298 110.96 52.5298C110.29 52.6398 109.62 52.7198 108.95 52.7798C108.28 52.8398 107.64 52.8698 107.03 52.8698L107.01 52.8898ZM99.4099 41.7598C99.1999 41.7598 98.9399 41.9098 98.6599 42.1898C98.3399 42.5098 98.1199 42.8998 97.9999 43.3798C97.8199 44.0898 97.7199 44.8898 97.6999 45.7698C97.6799 46.6498 97.7399 47.4498 97.8999 48.1498V48.1698C97.9599 48.4998 98.0799 48.7898 98.2499 49.0498C98.4399 49.3398 98.6499 49.5898 98.8799 49.8098C99.1099 50.0298 99.3499 50.2198 99.5999 50.3798C99.8499 50.5398 100.08 50.6798 100.3 50.7898C100.62 50.9298 101.05 51.0798 101.55 51.2098C102.05 51.3398 102.61 51.4598 103.2 51.5698C103.79 51.6698 104.42 51.7498 105.07 51.8098C106.28 51.9198 107.47 51.9298 108.83 51.8098C109.48 51.7498 110.13 51.6698 110.77 51.5698C111.4 51.4698 112.01 51.3398 112.57 51.1798C113.12 51.0298 113.61 50.8498 114.03 50.6498C114.21 50.5798 114.39 50.4798 114.59 50.3398C114.78 50.2098 114.95 50.0398 115.11 49.8298C115.26 49.6298 115.37 49.4098 115.45 49.1598C115.52 48.9398 115.51 48.6998 115.45 48.4098C115.38 48.0998 115.25 47.8698 115.07 47.6898C114.86 47.4898 114.63 47.3398 114.39 47.2498C114.15 47.1598 113.91 47.1198 113.64 47.1298C113.37 47.1398 113.13 47.1898 112.9 47.2898C112.75 47.3798 112.43 47.4898 111.96 47.5998C111.54 47.6998 111.06 47.7898 110.52 47.8698C109.98 47.9498 109.42 48.0198 108.84 48.0698C107.49 48.1798 106.13 48.1498 104.97 48.0698C104.27 48.0198 103.67 47.9398 103.17 47.8098C102.61 47.5998 102.34 47.2198 102.34 46.7298V45.4298H111.97C112.4 45.4298 112.8 45.2798 113.2 44.9598C113.61 44.6398 113.88 44.2098 114.04 43.6598C114.12 43.3598 114.19 42.9898 114.23 42.5398C114.27 42.0798 114.3 41.5798 114.3 41.0498C114.3 40.5198 114.29 39.9698 114.27 39.4298C114.25 38.8898 114.21 38.4098 114.17 37.9698C114.09 37.4198 113.85 36.9398 113.44 36.5198C113.04 36.1198 112.55 35.9298 111.94 35.9298H99.8299C99.3699 35.9298 99.0299 36.0898 98.7499 36.4398C98.4499 36.8198 98.2999 37.2398 98.2999 37.7398C98.2999 38.2398 98.4499 38.6698 98.7499 39.0598C99.0299 39.4198 99.3699 39.5798 99.8299 39.5798H108.83C109.39 39.5798 109.75 39.9098 109.75 40.4298V40.8698C109.75 41.0898 109.73 41.2598 109.7 41.3898L109.61 41.7698H99.4199L99.4099 41.7598ZM103.34 46.4098V46.7098C103.34 46.7098 103.34 46.7898 103.48 46.8398C103.86 46.9298 104.41 47.0098 105.05 47.0498C106.16 47.1298 107.47 47.1598 108.77 47.0498C109.33 46.9998 109.87 46.9398 110.38 46.8598C110.89 46.7798 111.35 46.6998 111.75 46.5998C112.22 46.4898 112.4 46.4098 112.47 46.3698C112.5 46.3598 112.54 46.3398 112.57 46.3298C112.38 46.3698 112.18 46.3898 111.99 46.3898H103.36L103.34 46.4098Z" fill="#231F20"/>
<path d="M131.12 55.9497C130.79 55.8997 130.47 55.8197 130.16 55.6897C129.84 55.5597 129.56 55.3897 129.32 55.1697C129.08 54.9497 128.89 54.6697 128.76 54.3297C128.63 53.9897 128.59 53.5997 128.64 53.1597C128.69 52.7397 128.81 52.3897 129.01 52.1097C129.21 51.8297 129.45 51.6097 129.73 51.4597C130.01 51.3097 130.32 51.2097 130.66 51.1597C131 51.1097 131.32 51.0997 131.62 51.1297C132.53 51.2197 133.62 51.2997 134.87 51.3597C136.13 51.4197 137.48 51.4697 138.93 51.5197C140.38 51.5697 141.86 51.5897 143.39 51.5897C144.92 51.5897 146.41 51.5797 147.85 51.5497C149.3 51.5297 150.65 51.4797 151.91 51.4097C153.17 51.3397 154.25 51.2497 155.16 51.1297C155.49 51.0797 155.83 51.0797 156.18 51.1097C156.53 51.1497 156.86 51.2397 157.16 51.4097C157.46 51.5697 157.73 51.7997 157.95 52.0897C158.17 52.3797 158.29 52.7697 158.32 53.2597C158.37 53.6997 158.32 54.0897 158.18 54.4197C158.04 54.7497 157.85 55.0097 157.6 55.2197C157.35 55.4297 157.08 55.5897 156.76 55.7097C156.44 55.8297 156.14 55.9097 155.83 55.9597C155.01 56.0797 153.83 56.1697 152.28 56.2197C150.73 56.2797 149.01 56.3297 147.12 56.3797V58.2397C147.12 58.6097 147.03 58.9297 146.84 59.1797C146.65 59.4397 146.41 59.6497 146.12 59.8097C145.83 59.9697 145.51 60.0997 145.16 60.1797C144.81 60.2597 144.47 60.2997 144.15 60.2997C143.83 60.2997 143.49 60.2597 143.15 60.1797C142.81 60.0997 142.5 59.9697 142.22 59.7997C141.94 59.6197 141.71 59.4097 141.52 59.1497C141.33 58.8897 141.24 58.5897 141.24 58.2397V56.4197C140.19 56.4197 139.16 56.4097 138.16 56.3797C137.16 56.3597 136.22 56.3297 135.34 56.2897C134.46 56.2497 133.67 56.2097 132.94 56.1497C132.22 56.0897 131.61 56.0297 131.12 55.9597V55.9497ZM153.38 41.2897C154.27 42.0397 154.71 43.0597 154.71 44.3697C154.71 45.5797 154.34 46.5797 153.61 47.3597C152.88 48.1397 151.95 48.7497 150.85 49.1997C149.75 49.6497 148.53 49.9497 147.21 50.1097C145.89 50.2697 144.65 50.3597 143.48 50.3597C142.31 50.3597 141.11 50.2897 139.81 50.1497C138.5 50.0097 137.29 49.7197 136.17 49.2897C135.05 48.8597 134.12 48.2497 133.37 47.4697C132.62 46.6897 132.25 45.6697 132.25 44.4097C132.25 43.7597 132.38 43.1397 132.63 42.5697C132.88 41.9997 133.23 41.5697 133.65 41.2897H133.05C132.75 41.2897 132.47 41.2097 132.21 41.0397C131.95 40.8797 131.74 40.6697 131.56 40.4297C131.38 40.1897 131.25 39.9097 131.16 39.6097C131.07 39.3097 131.02 38.9997 131.02 38.6997C131.02 38.4197 131.07 38.1197 131.16 37.8097C131.25 37.4997 131.39 37.2197 131.56 36.9697C131.73 36.7197 131.95 36.5197 132.21 36.3597C132.47 36.1997 132.75 36.1197 133.05 36.1197H140.54V35.3097C140.54 34.7697 140.83 34.2897 141.4 33.8697C141.97 33.4497 142.62 33.2397 143.34 33.2397C143.69 33.2397 144.05 33.2897 144.41 33.3997C144.77 33.4997 145.1 33.6497 145.39 33.8197C145.68 33.9897 145.93 34.2097 146.13 34.4697C146.33 34.7297 146.43 35.0097 146.43 35.3097V36.1197H153.82C154.43 36.1197 154.94 36.3797 155.36 36.8897C155.78 37.3997 155.99 37.9997 155.99 38.6697C155.99 38.9697 155.94 39.2797 155.85 39.5797C155.76 39.8797 155.62 40.1597 155.43 40.4197C155.24 40.6797 155.02 40.8897 154.75 41.0497C154.48 41.2097 154.17 41.2997 153.82 41.2997H153.4L153.38 41.2897ZM137.21 60.1497C137.16 60.3097 137.21 60.4597 137.33 60.6097C137.46 60.7497 137.67 60.8397 137.98 60.8897C138.38 60.9597 138.83 61.0197 139.33 61.0597C139.83 61.1097 140.36 61.1497 140.91 61.1797C141.46 61.2197 142.01 61.2397 142.55 61.2697C143.1 61.2897 143.59 61.3097 144.04 61.3097C145.6 61.3097 147.14 61.2197 148.66 61.0497C150.18 60.8797 151.48 60.5897 152.58 60.1897C152.93 60.0497 153.29 59.9797 153.66 59.9797C154.03 59.9797 154.38 60.0397 154.71 60.1697C155.04 60.2997 155.33 60.4897 155.59 60.7497C155.85 61.0097 156.02 61.3197 156.12 61.6997C156.33 62.3097 156.31 62.9097 156.05 63.5197C155.79 64.1297 155.36 64.5697 154.76 64.8497C154.08 65.1797 153.3 65.4397 152.4 65.6397C151.5 65.8397 150.57 65.9997 149.6 66.1097C148.63 66.2297 147.67 66.3097 146.71 66.3597C145.75 66.4097 144.87 66.4297 144.05 66.4297C143.23 66.4297 142.36 66.4097 141.44 66.3597C140.52 66.3097 139.61 66.2497 138.73 66.1697C137.84 66.0897 137.01 65.9797 136.24 65.8397C135.47 65.6997 134.83 65.5197 134.32 65.3097C133.81 65.1197 133.27 64.7597 132.71 64.2297C132.15 63.6997 131.78 63.0397 131.59 62.2697C131.47 61.7097 131.43 61.1497 131.45 60.5697C131.47 59.9997 131.54 59.3597 131.66 58.6597C131.73 58.3097 131.87 58.0097 132.08 57.7497C132.29 57.4897 132.55 57.2897 132.87 57.1597C133.19 57.0197 133.53 56.9297 133.9 56.8997C134.27 56.8597 134.63 56.8797 134.98 56.9497C135.7 57.0697 136.28 57.3597 136.71 57.8397C137.14 58.3197 137.33 58.9097 137.29 59.6097L137.22 60.1697L137.21 60.1497ZM148.87 43.4897C148.87 43.2297 148.79 42.9697 148.62 42.6797C148.46 42.3997 148.17 42.1397 147.76 41.9097C147.35 41.6797 146.8 41.4797 146.12 41.3297C145.43 41.1797 144.56 41.0997 143.51 41.0997C142.37 41.0997 141.44 41.1797 140.74 41.3297C140.04 41.4797 139.49 41.6697 139.1 41.8897C138.7 42.1097 138.43 42.3597 138.29 42.6397C138.15 42.9197 138.08 43.1997 138.08 43.4797C138.08 43.7797 138.17 44.0797 138.36 44.3597C138.55 44.6397 138.85 44.8897 139.27 45.1097C139.69 45.3297 140.24 45.5097 140.93 45.6497C141.62 45.7897 142.46 45.8597 143.47 45.8597C144.61 45.8597 145.54 45.7797 146.25 45.6297C146.96 45.4797 147.51 45.2797 147.9 45.0397C148.28 44.7897 148.54 44.5297 148.67 44.2497C148.8 43.9697 148.86 43.7097 148.86 43.4797L148.87 43.4897Z" fill="#B0C4DD"/>
<path d="M144.04 66.9099C143.22 66.9099 142.34 66.8899 141.41 66.8399C140.48 66.7899 139.57 66.7299 138.68 66.6499C137.78 66.5699 136.93 66.4499 136.15 66.3099C135.35 66.1699 134.67 65.9799 134.12 65.7599C133.56 65.5599 132.96 65.1599 132.35 64.5699C131.72 63.9699 131.3 63.2299 131.09 62.3699C130.96 61.7599 130.91 61.1499 130.94 60.5399C130.96 59.9499 131.04 59.2899 131.16 58.5699C131.25 58.1299 131.42 57.7499 131.69 57.4299C131.95 57.1099 132.27 56.8699 132.66 56.6899C132.7 56.6699 132.74 56.6499 132.78 56.6399C132.1 56.5799 131.53 56.5199 131.05 56.4499C130.68 56.3999 130.32 56.2999 129.97 56.1599C129.6 56.0099 129.27 55.7999 128.98 55.5399C128.68 55.2599 128.44 54.9199 128.29 54.5099C128.13 54.0999 128.08 53.6299 128.14 53.1099C128.19 52.6099 128.35 52.1699 128.6 51.8199C128.84 51.4799 129.14 51.2099 129.49 51.0199C129.82 50.8399 130.19 50.7199 130.59 50.6699C130.96 50.6199 131.32 50.6099 131.66 50.6299C132.58 50.7199 133.66 50.7999 134.9 50.8599C136.16 50.9199 137.51 50.9699 138.95 51.0199C141.74 51.1099 144.94 51.0999 147.85 51.0499C149.28 51.0299 150.63 50.9799 151.89 50.9099C153.14 50.8399 154.22 50.7499 155.11 50.6299C155.47 50.5799 155.86 50.5699 156.24 50.6099C156.65 50.6499 157.05 50.7699 157.41 50.9599C157.78 51.1599 158.09 51.4299 158.36 51.7799C158.64 52.1599 158.8 52.6399 158.83 53.2299C158.88 53.7299 158.83 54.1999 158.65 54.6099C158.48 55.0099 158.24 55.3399 157.94 55.5999C157.65 55.8499 157.32 56.0399 156.95 56.1799C156.61 56.3099 156.26 56.3999 155.93 56.4499C155.09 56.5699 153.88 56.6599 152.32 56.7199C150.9 56.7699 149.34 56.8199 147.64 56.8599V58.2299C147.64 58.7099 147.51 59.1299 147.26 59.4699C147.03 59.7799 146.74 60.0399 146.38 60.2399C146.05 60.4199 145.68 60.5699 145.29 60.6599C144.52 60.8399 143.79 60.8399 143.04 60.6599C142.65 60.5599 142.29 60.4099 141.97 60.2099C141.64 59.9999 141.35 59.7399 141.13 59.4299C140.88 59.0899 140.75 58.6799 140.75 58.2299V56.9099C139.87 56.9099 139 56.8999 138.16 56.8799C137.49 56.8599 136.84 56.8499 136.23 56.8299C136.56 56.9999 136.84 57.2299 137.09 57.4999C137.61 58.0799 137.85 58.7999 137.8 59.6299L137.72 60.2699C137.72 60.2699 137.84 60.3699 138.08 60.3999C138.47 60.4699 138.91 60.5299 139.4 60.5699C139.9 60.6199 140.42 60.6599 140.96 60.6899C141.5 60.7199 142.05 60.7499 142.59 60.7799C143.13 60.7999 143.62 60.8199 144.06 60.8199C145.59 60.8199 147.13 60.7299 148.62 60.5599C150.09 60.3899 151.37 60.1099 152.43 59.7299C153.21 59.4199 154.15 59.4099 154.92 59.7199C155.31 59.8699 155.66 60.0999 155.96 60.4099C156.28 60.7299 156.5 61.1299 156.62 61.5899C156.86 62.2699 156.83 63.0099 156.53 63.7299C156.22 64.4499 155.7 64.9899 154.98 65.3199C154.28 65.6599 153.45 65.9399 152.52 66.1399C151.61 66.3399 150.66 66.4999 149.67 66.6199C148.7 66.7399 147.72 66.8199 146.75 66.8699C145.78 66.9199 144.89 66.9399 144.06 66.9399L144.04 66.9099ZM134.25 57.3599C134.14 57.3599 134.04 57.3599 133.93 57.3799C133.61 57.4099 133.32 57.4799 133.05 57.5999C132.8 57.7099 132.61 57.8599 132.45 58.0499C132.29 58.2399 132.19 58.4699 132.13 58.7399C132.02 59.3999 131.95 60.0199 131.93 60.5699C131.91 61.0999 131.95 61.6299 132.06 62.1499C132.22 62.8199 132.54 63.3799 133.04 63.8499C133.54 64.3399 134.03 64.6599 134.47 64.8299C134.97 65.0299 135.58 65.1999 136.31 65.3299C137.06 65.4699 137.88 65.5799 138.75 65.6599C139.63 65.7399 140.53 65.7999 141.44 65.8499C143.26 65.9399 144.76 65.9399 146.66 65.8499C147.61 65.7999 148.57 65.7199 149.51 65.6099C150.46 65.4899 151.39 65.3399 152.26 65.1499C153.12 64.9599 153.87 64.7099 154.51 64.3999C155.01 64.1699 155.35 63.8199 155.56 63.3299C155.77 62.8399 155.79 62.3599 155.62 61.8699C155.54 61.5399 155.41 61.3099 155.21 61.1099C155 60.8999 154.77 60.7499 154.51 60.6499C153.97 60.4399 153.32 60.4299 152.74 60.6699C151.59 61.0899 150.24 61.3799 148.69 61.5599C147.16 61.7399 145.58 61.8299 144.01 61.8299C143.56 61.8299 143.06 61.8199 142.5 61.7899C141.95 61.7699 141.4 61.7399 140.84 61.6999C140.29 61.6599 139.76 61.6199 139.25 61.5799C138.73 61.5299 138.27 61.4699 137.86 61.3999C137.45 61.3399 137.14 61.1899 136.93 60.9699C136.69 60.7099 136.61 60.3999 136.68 60.0799L136.75 59.5499C136.79 59.0199 136.64 58.5599 136.3 58.1799C135.94 57.7799 135.47 57.5399 134.86 57.4499C134.65 57.4099 134.43 57.3899 134.22 57.3899L134.25 57.3599ZM131.3 51.6099C131.11 51.6099 130.91 51.6199 130.71 51.6499C130.43 51.6899 130.18 51.7699 129.95 51.8899C129.74 52.0099 129.56 52.1699 129.4 52.3899C129.25 52.5999 129.16 52.8699 129.12 53.2099C129.08 53.5699 129.12 53.8899 129.21 54.1499C129.31 54.4099 129.45 54.6299 129.64 54.7999C129.84 54.9799 130.07 55.1299 130.33 55.2299C130.6 55.3399 130.89 55.4199 131.18 55.4599C131.66 55.5299 132.26 55.5899 132.97 55.6499C133.69 55.7099 134.48 55.7499 135.35 55.7899C136.22 55.8199 137.16 55.8499 138.16 55.8799C139.16 55.8999 140.18 55.9199 141.23 55.9199H141.73V58.2399C141.73 58.4799 141.79 58.6899 141.91 58.8599C142.06 59.0699 142.24 59.2399 142.47 59.3799C142.7 59.5199 142.96 59.6299 143.25 59.6999C143.84 59.8399 144.42 59.8399 145.03 59.6999C145.33 59.6299 145.61 59.5199 145.86 59.3799C146.09 59.2499 146.27 59.0899 146.42 58.8899C146.54 58.7199 146.61 58.5099 146.61 58.2399V55.8999H147.1C148.99 55.8399 150.71 55.7899 152.26 55.7299C153.78 55.6699 154.96 55.5899 155.76 55.4699C156.03 55.4299 156.3 55.3599 156.59 55.2499C156.85 55.1599 157.08 55.0199 157.28 54.8499C157.47 54.6899 157.61 54.4899 157.72 54.2299C157.82 53.9799 157.86 53.6799 157.82 53.3199C157.8 52.9099 157.71 52.6099 157.55 52.3999C157.37 52.1599 157.17 51.9899 156.92 51.8599C156.67 51.7299 156.41 51.6499 156.13 51.6199C155.82 51.5899 155.52 51.5899 155.23 51.6399C154.31 51.7599 153.21 51.8499 151.93 51.9199C150.66 51.9899 149.29 52.0399 147.85 52.0599C144.93 52.1099 141.71 52.1199 138.9 52.0199C137.45 51.9699 136.1 51.9199 134.83 51.8599C133.58 51.7999 132.47 51.7299 131.55 51.6299C131.47 51.6299 131.38 51.6299 131.3 51.6299V51.6099ZM143.47 50.8499C142.32 50.8499 141.06 50.7799 139.74 50.6399C138.39 50.4999 137.13 50.1999 135.97 49.7499C134.78 49.2899 133.78 48.6399 132.99 47.8099C132.16 46.9399 131.73 45.7899 131.73 44.3999C131.73 43.6799 131.87 42.9899 132.16 42.3599C132.26 42.1299 132.38 41.9099 132.51 41.7199C132.3 41.6699 132.11 41.5799 131.92 41.4599C131.61 41.2599 131.35 41.0099 131.13 40.7199C130.92 40.4299 130.76 40.1099 130.66 39.7499C130.55 39.3999 130.5 39.0499 130.5 38.6899C130.5 38.3599 130.55 38.0099 130.66 37.6499C130.77 37.2899 130.93 36.9499 131.13 36.6599C131.34 36.3599 131.61 36.1099 131.92 35.9199C132.26 35.7099 132.63 35.5999 133.03 35.5999H140.02V35.2899C140.02 34.5899 140.38 33.9699 141.08 33.4499C142.05 32.7399 143.27 32.5399 144.53 32.8999C144.93 33.0199 145.3 33.1799 145.63 33.3699C145.97 33.5699 146.27 33.8299 146.5 34.1399C146.77 34.4899 146.9 34.8699 146.9 35.2899V35.5999H153.79C154.55 35.5999 155.2 35.9199 155.72 36.5499C156.21 37.1499 156.46 37.8599 156.46 38.6499C156.46 38.9999 156.41 39.3499 156.3 39.7099C156.19 40.0599 156.03 40.3999 155.81 40.6999C155.59 41.0099 155.31 41.2699 154.98 41.4599C154.81 41.5599 154.63 41.6399 154.43 41.6999C154.94 42.4299 155.2 43.3199 155.2 44.3599C155.2 45.6999 154.78 46.8199 153.96 47.6899C153.18 48.5199 152.19 49.1799 151.02 49.6499C149.88 50.1099 148.61 50.4199 147.26 50.5899C145.93 50.7599 144.65 50.8399 143.47 50.8399V50.8499ZM133.04 36.5999C132.83 36.5999 132.65 36.6499 132.47 36.7699C132.27 36.8999 132.1 37.0599 131.96 37.2499C131.82 37.4499 131.71 37.6799 131.63 37.9399C131.55 38.2099 131.51 38.4599 131.51 38.6899C131.51 38.9399 131.55 39.1999 131.63 39.4499C131.71 39.6999 131.82 39.9299 131.96 40.1299C132.1 40.3199 132.27 40.4799 132.47 40.6099C132.65 40.7199 132.83 40.7799 133.04 40.7799H135.29L133.92 41.6999C133.58 41.9299 133.3 42.2799 133.08 42.7699C132.85 43.2699 132.74 43.8199 132.74 44.3999C132.74 45.5399 133.06 46.4299 133.72 47.1199C134.41 47.8399 135.29 48.4199 136.34 48.8199C137.41 49.2299 138.59 49.5099 139.85 49.6499C141.13 49.7899 142.35 49.8599 143.47 49.8599C144.59 49.8599 145.84 49.7799 147.14 49.6199C148.41 49.4599 149.59 49.1699 150.66 48.7399C151.7 48.3299 152.57 47.7499 153.25 47.0199C153.9 46.3299 154.22 45.4599 154.22 44.3699C154.22 43.2099 153.84 42.3299 153.07 41.6699L152.02 40.7899H153.81C154.07 40.7899 154.29 40.7299 154.48 40.6199C154.69 40.4899 154.87 40.3299 155.02 40.1199C155.18 39.9099 155.29 39.6699 155.37 39.4299C155.45 39.1699 155.49 38.9199 155.49 38.6699C155.49 38.1099 155.32 37.6299 154.97 37.1999C154.65 36.8099 154.27 36.6099 153.82 36.6099H145.93V35.2999C145.93 35.1099 145.87 34.9299 145.74 34.7599C145.58 34.5499 145.38 34.3799 145.14 34.2399C144.89 34.0899 144.6 33.9599 144.28 33.8699C143.32 33.5899 142.43 33.7299 141.7 34.2699C141.26 34.5899 141.05 34.9299 141.05 35.2999V36.6099H133.06L133.04 36.5999ZM143.47 46.3599C142.44 46.3599 141.55 46.2899 140.83 46.1399C140.09 45.9899 139.5 45.7999 139.03 45.5499C138.54 45.2899 138.17 44.9799 137.94 44.6299C137.7 44.2699 137.58 43.8799 137.58 43.4799C137.58 43.1199 137.67 42.7699 137.84 42.4199C138.03 42.0499 138.37 41.7199 138.85 41.4499C139.29 41.1999 139.88 40.9999 140.63 40.8399C141.36 40.6799 142.33 40.5999 143.5 40.5999C144.58 40.5999 145.49 40.6799 146.21 40.8399C146.96 40.9999 147.54 41.2099 148 41.4699C148.49 41.7499 148.83 42.0599 149.04 42.4199C149.25 42.7799 149.35 43.1299 149.35 43.4799C149.35 43.7799 149.27 44.1099 149.11 44.4599C148.94 44.8299 148.62 45.1699 148.15 45.4599C147.71 45.7399 147.12 45.9599 146.34 46.1199C145.59 46.2799 144.65 46.3599 143.45 46.3599H143.47ZM143.51 41.5999C142.41 41.5999 141.51 41.6699 140.85 41.8199C140.2 41.9599 139.69 42.1299 139.34 42.3299C139.03 42.4999 138.83 42.6799 138.74 42.8699C138.63 43.0799 138.58 43.2799 138.58 43.4899C138.58 43.6999 138.64 43.8899 138.78 44.0899C138.92 44.2999 139.16 44.4999 139.51 44.6799C139.89 44.8799 140.4 45.0499 141.04 45.1699C141.69 45.2999 142.51 45.3699 143.48 45.3699C144.59 45.3699 145.49 45.2999 146.16 45.1499C146.81 45.0099 147.31 44.8299 147.64 44.6199C147.94 44.4299 148.14 44.2399 148.22 44.0499C148.32 43.8399 148.37 43.6499 148.37 43.4899C148.37 43.3299 148.31 43.1399 148.19 42.9399C148.07 42.7399 147.85 42.5399 147.52 42.3499C147.16 42.1399 146.65 41.9699 146.02 41.8299C145.37 41.6899 144.53 41.6099 143.52 41.6099L143.51 41.5999Z" fill="#231F20"/>
<path d="M161.82 50.42C161.75 50.05 161.7 49.56 161.66 48.95C161.62 48.34 161.61 47.71 161.61 47.06C161.61 46.41 161.64 45.78 161.7 45.17C161.76 44.56 161.83 44.07 161.93 43.7C162.05 43.23 162.29 42.85 162.65 42.55C163.01 42.25 163.4 42.09 163.82 42.09H172.61V40.86C172.61 40.86 172.6 40.75 172.57 40.67C172.55 40.59 172.44 40.55 172.25 40.55H164.24C163.96 40.55 163.7 40.47 163.45 40.3C163.2 40.14 162.99 39.93 162.8 39.69C162.61 39.44 162.47 39.17 162.36 38.87C162.25 38.57 162.2 38.26 162.2 37.96C162.2 37.66 162.25 37.35 162.36 37.05C162.46 36.75 162.61 36.47 162.78 36.23C162.95 35.99 163.16 35.79 163.41 35.64C163.66 35.49 163.93 35.41 164.23 35.41H175.32C175.83 35.41 176.36 35.57 176.91 35.9C177.46 36.23 177.81 36.75 177.98 37.47C178.07 37.91 178.13 38.49 178.15 39.18C178.17 39.88 178.18 40.59 178.17 41.32C178.16 42.04 178.12 42.71 178.07 43.33C178.01 43.95 177.95 44.42 177.88 44.75C177.69 45.52 177.35 46.13 176.86 46.57C176.37 47.01 175.86 47.24 175.32 47.24H167.24V47.87C167.24 48.13 167.25 48.37 167.28 48.61C167.28 48.77 167.37 48.89 167.56 48.96C168.03 49.08 168.61 49.17 169.31 49.22C170.01 49.28 170.76 49.31 171.55 49.31C172.6 49.31 173.59 49.22 174.51 49.05C175.43 48.87 176.07 48.69 176.42 48.51C176.75 48.37 177.14 48.3 177.59 48.3C178.04 48.3 178.49 48.39 178.94 48.58V48.44C178.94 47.76 179.16 47.17 179.61 46.65C180.05 46.14 180.59 45.88 181.22 45.88H182.65C182.65 45.55 182.65 45.22 182.63 44.88C182.62 44.54 182.61 44.2 182.61 43.85H181.03C180.68 43.85 180.38 43.77 180.12 43.6C179.86 43.44 179.65 43.23 179.47 42.97C179.3 42.71 179.16 42.43 179.07 42.13C178.98 41.83 178.93 41.52 178.93 41.22C178.93 40.54 179.15 39.95 179.6 39.43C180.04 38.92 180.58 38.66 181.21 38.66H182.43C182.43 38.52 182.43 38.39 182.41 38.26C182.4 38.13 182.39 38.01 182.39 37.89C182.34 37.21 182.54 36.59 182.98 36.02C183.42 35.45 184.08 35.1 184.94 34.99C185.8 34.87 186.54 35.06 187.15 35.55C187.76 36.04 188.12 36.66 188.23 37.4C188.3 38.08 188.36 38.88 188.41 39.8C188.46 40.72 188.49 41.71 188.51 42.76C188.53 43.81 188.55 44.89 188.55 46.01C188.55 47.13 188.54 48.21 188.51 49.27C188.49 50.32 188.45 51.31 188.41 52.23C188.36 53.15 188.3 53.94 188.23 54.59C188.21 54.96 188.1 55.31 187.92 55.64C187.73 55.97 187.5 56.24 187.22 56.46C186.94 56.68 186.61 56.85 186.24 56.97C185.87 57.09 185.47 57.12 185.05 57.08C184.16 56.96 183.49 56.62 183.02 56.05C182.55 55.48 182.34 54.84 182.39 54.14C182.44 53.67 182.47 53.19 182.5 52.69C182.52 52.19 182.55 51.65 182.57 51.06H181.03C180.8 51.06 180.57 51.03 180.36 50.96C180.31 51.54 180.1 52.04 179.71 52.46C179.33 52.88 178.97 53.15 178.64 53.26C178.2 53.47 177.68 53.66 177.1 53.82C176.52 53.98 175.9 54.12 175.25 54.22C174.6 54.33 173.94 54.41 173.27 54.47C172.6 54.53 171.98 54.56 171.4 54.56C170.75 54.56 170.09 54.53 169.42 54.47C168.75 54.41 168.12 54.33 167.51 54.22C166.9 54.11 166.34 53.99 165.81 53.85C165.28 53.71 164.84 53.56 164.46 53.39C164.23 53.27 163.98 53.13 163.71 52.95C163.44 52.77 163.18 52.57 162.92 52.32C162.66 52.07 162.43 51.79 162.22 51.48C162.01 51.17 161.87 50.81 161.8 50.41L161.82 50.42ZM187.3 65.05C186.6 65.31 185.82 65.52 184.97 65.7C184.12 65.87 183.24 66.01 182.33 66.12C181.42 66.22 180.51 66.3 179.6 66.35C178.69 66.4 177.83 66.42 177.01 66.42C176.19 66.42 175.34 66.4 174.37 66.35C173.4 66.3 172.45 66.24 171.52 66.16C170.59 66.08 169.71 65.97 168.88 65.83C168.05 65.69 167.38 65.51 166.87 65.3C166.36 65.09 165.82 64.73 165.26 64.23C164.7 63.73 164.34 63.09 164.18 62.32C163.99 61.53 163.9 60.75 163.9 59.99C163.9 59.23 163.94 58.47 164 57.7C164.02 57.47 164.09 57.2 164.19 56.91C164.3 56.62 164.46 56.35 164.68 56.1C164.9 55.85 165.2 55.64 165.57 55.47C165.94 55.3 166.41 55.22 166.97 55.24C167.48 55.26 167.93 55.37 168.3 55.57C168.67 55.77 168.97 56.01 169.19 56.29C169.41 56.57 169.58 56.87 169.68 57.18C169.79 57.5 169.81 57.79 169.77 58.07L169.66 59.75C169.66 60.17 169.86 60.42 170.26 60.48C170.66 60.57 171.14 60.65 171.71 60.71C172.28 60.77 172.89 60.82 173.53 60.85C174.17 60.88 174.81 60.91 175.45 60.92C176.09 60.93 176.69 60.94 177.25 60.94C178.7 60.94 180.17 60.84 181.66 60.63C183.15 60.42 184.47 60.17 185.62 59.89C186.3 59.73 186.97 59.81 187.63 60.15C188.29 60.49 188.73 61.07 188.94 61.88C189.1 62.49 189.03 63.1 188.71 63.73C188.4 64.36 187.92 64.79 187.29 65.02L187.3 65.05Z" fill="#B0C4DD"/>
<path d="M177.01 66.9098C176.21 66.9098 175.32 66.8898 174.34 66.8398C173.36 66.7898 172.41 66.7298 171.47 66.6498C170.52 66.5698 169.62 66.4498 168.79 66.3098C167.93 66.1598 167.22 65.9798 166.67 65.7498C166.11 65.5198 165.52 65.1298 164.92 64.5898C164.28 64.0198 163.86 63.2898 163.68 62.4098C163.49 61.5998 163.39 60.7698 163.39 59.9798C163.39 59.1898 163.43 58.4298 163.5 57.6398C163.53 57.3598 163.6 57.0598 163.72 56.7298C163.85 56.3798 164.05 56.0498 164.31 55.7598C164.58 55.4698 164.93 55.2198 165.36 55.0098C165.8 54.7998 166.35 54.7198 166.99 54.7398C167.58 54.7698 168.1 54.8998 168.53 55.1298C168.96 55.3598 169.32 55.6498 169.58 55.9798C169.84 56.3098 170.03 56.6598 170.15 57.0298C170.28 57.4198 170.32 57.7998 170.26 58.1598L170.16 59.7898C170.16 59.9598 170.21 59.9798 170.34 59.9998C170.75 60.0898 171.21 60.1698 171.76 60.2198C172.33 60.2798 172.92 60.3198 173.56 60.3598C174.19 60.3898 174.83 60.4198 175.47 60.4298C176.11 60.4398 176.71 60.4498 177.26 60.4498C178.68 60.4498 180.14 60.3498 181.6 60.1398C183.07 59.9298 184.38 59.6898 185.51 59.4098C186.3 59.2198 187.1 59.3198 187.87 59.7098C188.66 60.1098 189.19 60.7998 189.44 61.7598C189.63 62.4798 189.55 63.2198 189.18 63.9598C188.81 64.6998 188.24 65.2198 187.49 65.4998C186.77 65.7598 185.97 65.9898 185.09 66.1698C184.23 66.3498 183.33 66.4898 182.4 66.5998C181.49 66.6998 180.57 66.7798 179.64 66.8298C178.72 66.8798 177.85 66.8998 177.02 66.8998L177.01 66.9098ZM166.78 55.7398C166.38 55.7398 166.04 55.7998 165.78 55.9198C165.47 56.0698 165.22 56.2398 165.05 56.4298C164.87 56.6298 164.74 56.8398 164.66 57.0698C164.57 57.3198 164.51 57.5498 164.49 57.7398C164.42 58.4898 164.39 59.2498 164.39 59.9798C164.39 60.7098 164.48 61.4398 164.66 62.1898C164.8 62.8698 165.11 63.3998 165.59 63.8398C166.1 64.2998 166.6 64.6298 167.06 64.8198C167.54 65.0198 168.18 65.1798 168.97 65.3198C169.78 65.4598 170.65 65.5698 171.57 65.6498C172.5 65.7298 173.44 65.7898 174.4 65.8398C176.34 65.9298 177.8 65.9298 179.58 65.8398C180.49 65.7898 181.39 65.7198 182.28 65.6098C183.17 65.5098 184.05 65.3698 184.88 65.1998C185.71 65.0298 186.46 64.8198 187.14 64.5698C187.65 64.3798 188.02 64.0398 188.28 63.5198C188.54 62.9998 188.6 62.5098 188.47 62.0198C188.29 61.3398 187.95 60.8798 187.41 60.5998C186.85 60.3098 186.3 60.2398 185.74 60.3798C184.59 60.6598 183.24 60.9098 181.74 61.1198C180.23 61.3298 178.73 61.4398 177.26 61.4398C176.7 61.4398 176.09 61.4398 175.45 61.4198C174.8 61.4098 174.16 61.3798 173.51 61.3498C172.86 61.3098 172.24 61.2698 171.67 61.2098C171.08 61.1498 170.57 61.0698 170.15 60.9698C169.54 60.8598 169.17 60.4198 169.17 59.7498L169.28 58.0398C169.32 57.7898 169.3 57.5698 169.22 57.3398C169.14 57.0798 169 56.8298 168.81 56.5998C168.63 56.3798 168.39 56.1798 168.08 56.0098C167.77 55.8498 167.4 55.7598 166.96 55.7298C166.9 55.7298 166.85 55.7298 166.79 55.7298L166.78 55.7398ZM185.42 57.5798C185.29 57.5798 185.15 57.5798 185.01 57.5598C183.99 57.4298 183.2 57.0198 182.65 56.3498C182.1 55.6798 181.85 54.9198 181.91 54.0898C181.96 53.6198 181.99 53.1398 182.02 52.6498L182.07 51.5498H181.05C180.96 51.5498 180.88 51.5498 180.79 51.5398C180.67 52.0098 180.44 52.4298 180.1 52.7898C179.65 53.2798 179.24 53.5798 178.83 53.7298C178.41 53.9298 177.86 54.1298 177.26 54.2998C176.67 54.4698 176.02 54.6098 175.35 54.7098C174.68 54.8198 174.01 54.8998 173.34 54.9598C171.93 55.0798 170.67 55.0698 169.4 54.9598C168.73 54.8998 168.07 54.8198 167.45 54.7098C166.83 54.5998 166.24 54.4798 165.71 54.3298C165.16 54.1798 164.68 54.0198 164.29 53.8498C164.02 53.7098 163.75 53.5598 163.46 53.3698C163.17 53.1798 162.88 52.9498 162.6 52.6798C162.32 52.4098 162.06 52.0998 161.83 51.7598C161.58 51.3898 161.42 50.9698 161.33 50.5098C161.26 50.1098 161.2 49.5998 161.17 48.9798C161.13 48.3598 161.12 47.7298 161.12 47.0598C161.12 46.3898 161.15 45.7498 161.21 45.1198C161.27 44.4898 161.35 43.9698 161.45 43.5798C161.59 43.0098 161.89 42.5298 162.33 42.1598C162.78 41.7798 163.29 41.5898 163.82 41.5898H172.11V41.0498H164.24C163.86 41.0498 163.5 40.9398 163.18 40.7198C162.89 40.5298 162.63 40.2798 162.41 39.9898C162.19 39.6998 162.02 39.3798 161.9 39.0298C161.78 38.6798 161.72 38.3198 161.72 37.9598C161.72 37.5998 161.78 37.2398 161.9 36.8898C162.02 36.5498 162.18 36.2298 162.39 35.9398C162.6 35.6398 162.86 35.3998 163.16 35.2098C163.49 35.0098 163.85 34.9098 164.25 34.9098H175.34C175.94 34.9098 176.56 35.0998 177.19 35.4698C177.86 35.8698 178.3 36.5098 178.49 37.3598C178.59 37.8398 178.65 38.4398 178.68 39.1698C178.68 39.4298 178.69 39.6998 178.7 39.9598C178.83 39.6598 179.01 39.3698 179.24 39.0998C179.78 38.4698 180.45 38.1598 181.23 38.1598H181.93C181.93 38.0698 181.93 37.9798 181.93 37.8898C181.88 37.1298 182.11 36.3798 182.63 35.7098C183.15 35.0298 183.92 34.6198 184.92 34.4898C185.92 34.3598 186.79 34.5798 187.51 35.1598C188.21 35.7298 188.64 36.4598 188.77 37.3298C188.84 38.0398 188.9 38.8498 188.95 39.7798C189 40.7098 189.03 41.6998 189.06 42.7498C189.08 43.7998 189.1 44.8898 189.1 46.0198C189.1 47.1498 189.09 48.2298 189.06 49.2898C189.03 50.3498 189 51.3298 188.95 52.2598C188.9 53.1898 188.84 53.9898 188.77 54.6498C188.74 55.0798 188.62 55.4998 188.39 55.8998C188.17 56.2798 187.89 56.6098 187.57 56.8698C187.24 57.1298 186.86 57.3298 186.43 57.4598C186.12 57.5598 185.79 57.6098 185.44 57.6098L185.42 57.5798ZM179.93 50.2598L180.54 50.4598C180.7 50.5098 180.87 50.5398 181.05 50.5398H183.11L183.02 52.6898C183 53.1998 182.96 53.6898 182.91 54.1698C182.87 54.7298 183.04 55.2398 183.43 55.7098C183.82 56.1798 184.38 56.4598 185.14 56.5598C185.48 56.5998 185.81 56.5598 186.11 56.4698C186.42 56.3698 186.7 56.2298 186.93 56.0498C187.16 55.8698 187.35 55.6498 187.51 55.3698C187.66 55.1098 187.74 54.8398 187.76 54.5398C187.83 53.8698 187.89 53.0898 187.94 52.1798C187.98 51.2598 188.02 50.2798 188.04 49.2398C188.06 48.1898 188.08 47.1098 188.08 45.9998C188.08 44.8898 188.07 43.7998 188.04 42.7598C188.02 41.7098 187.98 40.7298 187.94 39.8198C187.89 38.9098 187.84 38.1198 187.77 37.4498C187.68 36.8498 187.38 36.3498 186.87 35.9298C186.37 35.5298 185.78 35.3798 185.05 35.4798C184.31 35.5798 183.78 35.8598 183.42 36.3198C183.05 36.7998 182.89 37.2998 182.93 37.8498C182.93 37.9898 182.93 38.0898 182.95 38.2098C182.96 38.3498 182.97 38.4998 182.97 38.6598V39.1598H181.25C180.77 39.1598 180.36 39.3598 180.02 39.7598C179.65 40.1798 179.48 40.6598 179.48 41.2198C179.48 41.4698 179.52 41.7298 179.6 41.9798C179.68 42.2298 179.79 42.4698 179.94 42.6798C180.08 42.8798 180.24 43.0398 180.44 43.1698C180.62 43.2798 180.83 43.3398 181.08 43.3398H183.16V43.8398C183.16 44.1798 183.16 44.5198 183.18 44.8598C183.19 45.1998 183.2 45.5398 183.2 45.8698V46.3698H181.27C180.79 46.3698 180.38 46.5598 180.04 46.9698C179.67 47.3898 179.5 47.8698 179.5 48.4298V49.3198L178.81 49.0298C178.05 48.7098 177.21 48.7298 176.68 48.9598C176.33 49.1498 175.65 49.3498 174.67 49.5298C173.01 49.8498 170.97 49.8498 169.34 49.7098C168.62 49.6498 168 49.5598 167.51 49.4298C167.07 49.2698 166.85 48.9698 166.85 48.5998C166.83 48.3998 166.81 48.1398 166.81 47.8598V46.7298H175.39C175.8 46.7298 176.2 46.5498 176.59 46.1898C177 45.8198 177.29 45.2898 177.46 44.6198C177.52 44.3298 177.58 43.8698 177.64 43.2698C177.7 42.6598 177.73 41.9998 177.74 41.2998C177.75 40.5898 177.74 39.8798 177.72 39.1898C177.7 38.5198 177.64 37.9798 177.56 37.5598C177.43 36.9798 177.16 36.5698 176.73 36.3098C176.26 36.0298 175.81 35.8898 175.39 35.8898H164.3C164.09 35.8898 163.91 35.9398 163.74 36.0398C163.55 36.1598 163.39 36.3098 163.25 36.4998C163.1 36.7098 162.98 36.9398 162.9 37.1998C162.81 37.4498 162.77 37.6998 162.77 37.9498C162.77 38.1998 162.81 38.4498 162.9 38.6998C162.99 38.9498 163.11 39.1798 163.26 39.3798C163.41 39.5798 163.59 39.7498 163.79 39.8798C163.95 39.9898 164.12 40.0398 164.3 40.0398H172.31C172.88 40.0398 173.05 40.3398 173.11 40.5198C173.15 40.6498 173.16 40.7598 173.16 40.8498V42.5798H163.87C163.57 42.5798 163.29 42.6898 163.02 42.9198C162.74 43.1598 162.56 43.4498 162.47 43.8098C162.38 44.1598 162.31 44.6298 162.26 45.2098C162.2 45.7998 162.18 46.4198 162.18 47.0498C162.18 47.6798 162.2 48.3098 162.23 48.9098C162.26 49.4898 162.31 49.9598 162.38 50.3198C162.44 50.6598 162.55 50.9398 162.72 51.1998C162.91 51.4798 163.12 51.7398 163.35 51.9598C163.59 52.1798 163.83 52.3798 164.06 52.5298C164.31 52.6898 164.55 52.8298 164.77 52.9398C165.09 53.0798 165.52 53.2298 166.02 53.3598C166.52 53.4898 167.08 53.6098 167.67 53.7198C168.26 53.8198 168.89 53.8998 169.53 53.9598C170.74 54.0698 171.94 54.0798 173.29 53.9598C173.94 53.8998 174.59 53.8198 175.23 53.7198C175.87 53.6198 176.47 53.4898 177.03 53.3298C177.58 53.1798 178.07 52.9998 178.49 52.7998C178.71 52.7198 178.99 52.5498 179.4 52.1098C179.71 51.7698 179.88 51.3798 179.92 50.8998L179.97 50.2598H179.93ZM167.78 48.4798C168.18 48.5798 168.72 48.6598 169.36 48.7098C170.91 48.8398 172.85 48.8398 174.42 48.5398C175.5 48.3298 175.98 48.1598 176.18 48.0498C176.85 47.7598 177.67 47.6898 178.48 47.8898C178.57 47.3098 178.82 46.7798 179.22 46.3098C179.76 45.6798 180.43 45.3698 181.21 45.3698H182.14C182.14 45.2098 182.14 45.0498 182.13 44.8898C182.13 44.7098 182.12 44.5298 182.12 44.3398H181.04C180.59 44.3398 180.2 44.2298 179.86 44.0198C179.55 43.8198 179.28 43.5598 179.07 43.2498C178.9 42.9898 178.75 42.7198 178.65 42.4198C178.63 42.7498 178.61 43.0698 178.58 43.3798C178.52 44.0098 178.45 44.5098 178.38 44.8598C178.17 45.7398 177.77 46.4398 177.21 46.9498C176.63 47.4798 176 47.7398 175.33 47.7398H167.75V47.8698C167.75 48.0898 167.75 48.2898 167.78 48.4898V48.4798Z" fill="#231F20"/>
<path d="M194.47 63.2695C194.14 63.2195 193.82 63.1095 193.49 62.9395C193.16 62.7695 192.88 62.5395 192.63 62.2595C192.38 61.9795 192.2 61.6595 192.07 61.2995C191.94 60.9395 191.91 60.5495 191.98 60.1295C192.05 59.7095 192.19 59.3395 192.4 59.0295C192.61 58.7195 192.87 58.4495 193.17 58.2395C193.47 58.0295 193.8 57.8795 194.15 57.7795C194.5 57.6895 194.83 57.6595 195.13 57.7095C196.18 57.8295 197.47 57.9195 199 57.9695C200.53 58.0295 202.16 58.0795 203.88 58.1295V54.6995C203.88 54.0895 204.18 53.5695 204.77 53.1395C205.37 52.7095 206.02 52.4895 206.75 52.4895C207.1 52.4895 207.45 52.5395 207.8 52.6495C208.15 52.7595 208.47 52.8995 208.76 53.0895C209.05 53.2795 209.29 53.5095 209.48 53.7895C209.67 54.0695 209.76 54.3695 209.76 54.6995V58.1295C211.49 58.1095 213.11 58.0595 214.62 57.9895C216.14 57.9195 217.42 57.8295 218.47 57.7095C218.82 57.6595 219.18 57.6895 219.55 57.7795C219.92 57.8695 220.26 58.0295 220.56 58.2395C220.86 58.4495 221.11 58.7195 221.31 59.0595C221.51 59.3995 221.62 59.7895 221.64 60.2295C221.66 60.6695 221.6 61.0795 221.47 61.4395C221.34 61.7995 221.14 62.1095 220.89 62.3695C220.64 62.6295 220.37 62.8295 220.07 62.9795C219.77 63.1295 219.46 63.2295 219.16 63.2795C218.46 63.3695 217.48 63.4495 216.22 63.5095C214.96 63.5695 213.55 63.6095 211.98 63.6495C210.41 63.6895 208.77 63.7095 207.05 63.7195C205.32 63.7295 203.66 63.7195 202.06 63.6995C200.46 63.6795 198.99 63.6295 197.65 63.5595C196.31 63.4895 195.24 63.3995 194.45 63.2795L194.47 63.2695ZM198.04 54.8295C197.74 54.8995 197.4 54.9295 197.03 54.9195C196.66 54.9095 196.31 54.8295 195.98 54.6895C195.65 54.5495 195.35 54.3395 195.07 54.0595C194.79 53.7795 194.58 53.4195 194.44 52.9795C194.21 52.2295 194.25 51.5295 194.58 50.8795C194.91 50.2295 195.44 49.7695 196.19 49.5195C197.33 49.0995 198.36 48.6295 199.27 48.1195C200.18 47.6095 200.95 46.9795 201.58 46.2295C202.21 45.4795 202.69 44.5895 203.03 43.5495C203.37 42.5095 203.54 41.2595 203.54 39.7895V38.3495C203.54 37.8595 203.8 37.3895 204.31 36.9295C204.82 36.4695 205.5 36.2495 206.34 36.2495C207.18 36.2495 207.87 36.4295 208.49 36.7795C209.11 37.1295 209.42 37.6595 209.42 38.3495V40.3795C209.42 42.3595 209.1 44.1495 208.46 45.7295C207.82 47.3195 206.96 48.7095 205.89 49.9095C204.82 51.1095 203.6 52.1195 202.25 52.9395C200.9 53.7595 199.5 54.3895 198.05 54.8295H198.04ZM218.27 49.6895C218.53 49.8495 218.75 50.0695 218.94 50.3395C219.13 50.6095 219.26 50.9195 219.34 51.2695C219.42 51.6195 219.43 51.9895 219.36 52.3895C219.29 52.7895 219.11 53.1995 218.83 53.6195C218.29 54.3895 217.66 54.7895 216.92 54.8295C216.18 54.8695 215.49 54.6795 214.84 54.2895L209.7 51.1395C209.44 50.9795 209.23 50.7495 209.07 50.4595C208.91 50.1695 208.8 49.8395 208.75 49.4795C208.7 49.1195 208.72 48.7395 208.8 48.3595C208.88 47.9795 209.04 47.6195 209.27 47.2895C209.5 46.9595 209.79 46.7095 210.13 46.5195C210.47 46.3295 210.81 46.1995 211.16 46.1295C211.51 46.0595 211.86 46.0495 212.21 46.1095C212.56 46.1695 212.85 46.2795 213.09 46.4395L218.27 49.6995V49.6895Z" fill="#B0C4DD"/>
<path d="M205.42 64.2097C204.28 64.2097 203.17 64.2097 202.08 64.1897C200.48 64.1697 198.99 64.1197 197.65 64.0497C196.31 63.9797 195.21 63.8797 194.4 63.7697C194.02 63.7097 193.63 63.5797 193.26 63.3797C192.88 63.1797 192.55 62.9097 192.26 62.5897C191.97 62.2597 191.75 61.8897 191.6 61.4697C191.44 61.0297 191.41 60.5497 191.49 60.0497C191.57 59.5597 191.74 59.1297 191.99 58.7497C192.23 58.3797 192.54 58.0697 192.89 57.8297C193.24 57.5897 193.62 57.4097 194.03 57.2997C194.45 57.1897 194.85 57.1597 195.22 57.2197C196.24 57.3297 197.53 57.4197 199.03 57.4797C200.4 57.5297 201.86 57.5797 203.39 57.6197V54.6997C203.39 53.9297 203.76 53.2697 204.49 52.7397C205.5 52.0097 206.73 51.8097 207.95 52.1697C208.34 52.2897 208.71 52.4597 209.04 52.6697C209.39 52.8897 209.68 53.1797 209.9 53.5097C210.14 53.8697 210.26 54.2697 210.26 54.6997V57.6197C211.76 57.5997 213.21 57.5497 214.6 57.4897C216.11 57.4197 217.39 57.3297 218.42 57.2097C218.82 57.1597 219.25 57.1797 219.68 57.2897C220.11 57.3997 220.51 57.5797 220.86 57.8197C221.22 58.0697 221.52 58.3997 221.76 58.7997C222 59.2097 222.13 59.6797 222.16 60.1997C222.19 60.7097 222.12 61.1897 221.95 61.6097C221.79 62.0297 221.56 62.3997 221.27 62.6997C220.98 62.9997 220.66 63.2397 220.31 63.4097C219.96 63.5797 219.61 63.6997 219.25 63.7497C218.52 63.8497 217.52 63.9197 216.25 63.9797C214.99 64.0397 213.57 64.0897 212 64.1197C210.43 64.1597 208.79 64.1797 207.06 64.1897C206.5 64.1897 205.95 64.1897 205.4 64.1897L205.42 64.2097ZM194.55 62.7697C195.33 62.8897 196.39 62.9797 197.71 63.0497C199.04 63.1197 200.52 63.1697 202.1 63.1897C203.69 63.2097 205.35 63.2197 207.08 63.2097C208.8 63.1997 210.45 63.1697 212.01 63.1397C213.57 63.0997 214.98 63.0597 216.23 62.9997C217.47 62.9397 218.44 62.8697 219.13 62.7797C219.37 62.7397 219.63 62.6597 219.88 62.5297C220.13 62.3997 220.36 62.2297 220.57 62.0197C220.77 61.8097 220.93 61.5597 221.04 61.2597C221.15 60.9697 221.2 60.6297 221.18 60.2597C221.16 59.8997 221.07 59.5797 220.92 59.3097C220.76 59.0397 220.55 58.8097 220.31 58.6497C220.06 58.4797 219.77 58.3497 219.46 58.2697C219.15 58.1897 218.85 58.1697 218.56 58.2097C217.5 58.3297 216.2 58.4197 214.67 58.4897C213.12 58.5597 211.47 58.6097 209.79 58.6297H209.28V54.6997C209.28 54.4697 209.22 54.2697 209.08 54.0697C208.93 53.8497 208.74 53.6597 208.51 53.5097C208.26 53.3497 207.98 53.2197 207.67 53.1297C206.74 52.8497 205.84 52.9997 205.08 53.5497C204.62 53.8797 204.39 54.2597 204.39 54.6997V58.6397H203.88C202.15 58.5797 200.52 58.5297 198.99 58.4697C197.46 58.4097 196.15 58.3197 195.09 58.1997C194.84 58.1597 194.58 58.1797 194.29 58.2597C194 58.3397 193.72 58.4697 193.47 58.6397C193.22 58.8097 193.01 59.0297 192.83 59.2897C192.66 59.5397 192.55 59.8497 192.49 60.1997C192.43 60.5297 192.46 60.8397 192.56 61.1197C192.67 61.4197 192.82 61.6897 193.02 61.9197C193.23 62.1597 193.46 62.3397 193.74 62.4897C194.01 62.6397 194.29 62.7297 194.56 62.7697H194.55ZM197.19 55.4197C197.13 55.4197 197.08 55.4197 197.02 55.4197C196.59 55.4097 196.17 55.3197 195.79 55.1497C195.41 54.9797 195.05 54.7397 194.72 54.4097C194.38 54.0697 194.13 53.6397 193.97 53.1197C193.7 52.2497 193.75 51.4097 194.14 50.6497C194.53 49.8797 195.16 49.3397 196.04 49.0397C197.15 48.6297 198.16 48.1697 199.04 47.6797C199.89 47.1997 200.63 46.5997 201.21 45.8997C201.8 45.2097 202.25 44.3597 202.57 43.3897C202.89 42.3997 203.05 41.1897 203.05 39.7797V38.3397C203.05 37.6997 203.37 37.0997 203.99 36.5497C204.59 36.0097 205.39 35.7397 206.35 35.7397C207.25 35.7397 208.06 35.9397 208.75 36.3297C209.52 36.7697 209.93 37.4597 209.93 38.3397V40.3697C209.93 42.4097 209.59 44.2697 208.93 45.9097C208.27 47.5397 207.37 48.9997 206.27 50.2397C205.17 51.4697 203.91 52.5197 202.52 53.3597C201.13 54.1997 199.68 54.8497 198.21 55.2997H198.18C197.88 55.3797 197.56 55.4097 197.21 55.4097L197.19 55.4197ZM206.34 36.7397C205.62 36.7397 205.06 36.9197 204.64 37.2997C204.24 37.6497 204.04 38.0097 204.04 38.3397V39.7797C204.04 41.2897 203.86 42.6097 203.51 43.6997C203.15 44.7897 202.63 45.7497 201.96 46.5397C201.3 47.3297 200.47 47.9997 199.51 48.5397C198.59 49.0597 197.53 49.5397 196.36 49.9697C195.73 50.1897 195.29 50.5497 195.02 51.0897C194.75 51.6297 194.72 52.1897 194.91 52.8197C195.02 53.1797 195.19 53.4797 195.42 53.6997C195.65 53.9197 195.91 54.1097 196.17 54.2197C196.44 54.3297 196.73 54.3997 197.04 54.4097C197.37 54.4197 197.65 54.3997 197.91 54.3397C199.3 53.9097 200.67 53.2997 201.98 52.5097C203.29 51.7197 204.47 50.7397 205.5 49.5797C206.53 48.4297 207.37 47.0697 207.98 45.5397C208.59 44.0197 208.91 42.2797 208.91 40.3697V38.3397C208.91 37.8197 208.7 37.4597 208.24 37.1997C207.7 36.8897 207.06 36.7397 206.33 36.7397H206.34ZM216.75 55.3097C215.99 55.3097 215.26 55.0997 214.58 54.6897L209.43 51.5397C209.1 51.3297 208.83 51.0397 208.62 50.6697C208.43 50.3297 208.3 49.9397 208.24 49.5097C208.19 49.0897 208.21 48.6597 208.3 48.2197C208.39 47.7697 208.58 47.3497 208.85 46.9697C209.12 46.5897 209.47 46.2797 209.87 46.0497C210.25 45.8397 210.65 45.6897 211.05 45.6097C211.46 45.5297 211.87 45.5197 212.28 45.5897C212.7 45.6597 213.07 45.7997 213.36 46.0097L218.52 49.2497C218.83 49.4497 219.1 49.7097 219.33 50.0297C219.55 50.3497 219.71 50.7197 219.81 51.1297C219.91 51.5497 219.91 51.9897 219.83 52.4497C219.75 52.9197 219.55 53.3897 219.23 53.8697C218.6 54.7797 217.82 55.2597 216.93 55.2997C216.86 55.2997 216.8 55.2997 216.73 55.2997L216.75 55.3097ZM211.74 46.5497C211.58 46.5497 211.42 46.5697 211.26 46.5997C210.96 46.6597 210.66 46.7697 210.37 46.9297C210.09 47.0797 209.87 47.2897 209.68 47.5497C209.48 47.8297 209.36 48.1097 209.29 48.4297C209.22 48.7597 209.2 49.0797 209.24 49.3797C209.28 49.6797 209.36 49.9497 209.49 50.1797C209.61 50.3997 209.77 50.5697 209.95 50.6897L215.09 53.8397C215.66 54.1897 216.24 54.3297 216.89 54.3097C217.47 54.2797 217.96 53.9597 218.41 53.3197C218.64 52.9697 218.8 52.6197 218.85 52.2897C218.91 51.9597 218.9 51.6497 218.84 51.3697C218.77 51.0797 218.67 50.8297 218.51 50.6097C218.36 50.3997 218.19 50.2297 217.99 50.0997L212.81 46.8497C212.62 46.7197 212.39 46.6297 212.12 46.5897C211.99 46.5697 211.86 46.5597 211.73 46.5597L211.74 46.5497Z" fill="#231F20"/>
</svg>
