<svg width="49" height="50" viewBox="0 0 49 50" fill="none" xmlns="http://www.w3.org/2000/svg">
<path d="M48.3336 42.8636L38.7913 33.323C38.3606 32.8923 37.7768 32.6531 37.1642 32.6531H35.6042C38.2458 29.2751 39.8154 25.0263 39.8154 20.4043C39.8154 9.40909 30.9048 0.5 19.9077 0.5C8.91061 0.5 0 9.40909 0 20.4043C0 31.3995 8.91061 40.3086 19.9077 40.3086C24.5305 40.3086 28.78 38.7392 32.1586 36.0981V37.6579C32.1586 38.2703 32.3979 38.8541 32.8286 39.2847L42.3709 48.8254C43.2706 49.7249 44.7253 49.7249 45.6154 48.8254L48.324 46.1172C49.2237 45.2177 49.2237 43.7632 48.3336 42.8636ZM19.9077 32.6531C13.141 32.6531 7.65681 27.1794 7.65681 20.4043C7.65681 13.6388 13.1314 8.1555 19.9077 8.1555C26.6744 8.1555 32.1586 13.6292 32.1586 20.4043C32.1586 27.1699 26.684 32.6531 19.9077 32.6531Z" fill="black"/>
</svg>
