<svg width="24" height="18" viewBox="0 0 24 18" fill="none" xmlns="http://www.w3.org/2000/svg">
<path d="M23.2377 3.26282C22.9651 2.22702 22.1619 1.41125 21.1421 1.1344C19.2935 0.631348 11.8812 0.631348 11.8812 0.631348C11.8812 0.631348 4.46884 0.631348 2.62027 1.1344C1.60043 1.41129 0.797222 2.22702 0.524609 3.26282C0.0292969 5.14028 0.0292969 9.05743 0.0292969 9.05743C0.0292969 9.05743 0.0292969 12.9746 0.524609 14.852C0.797222 15.8878 1.60043 16.6696 2.62027 16.9465C4.46884 17.4495 11.8812 17.4495 11.8812 17.4495C11.8812 17.4495 19.2935 17.4495 21.1421 16.9465C22.1619 16.6696 22.9651 15.8878 23.2377 14.852C23.733 12.9746 23.733 9.05743 23.733 9.05743C23.733 9.05743 23.733 5.14028 23.2377 3.26282ZM9.4569 12.6139V5.50096L15.6522 9.05752L9.4569 12.6139Z" fill="white"/>
</svg>
